<?xml version="1.0" encoding="UTF-8" standalone="no"?>
<svg width="300px" height="50px" viewBox="0 0 300 50" version="1.1" xmlns="http://www.w3.org/2000/svg" xmlns:xlink="http://www.w3.org/1999/xlink">
    <!-- Generator: Sketch 3.7.2 (28276) - http://www.bohemiancoding.com/sketch -->
    <title>waves</title>
    <desc>Created with Sketch.</desc>
    <defs></defs>
    <g id="Page-1" stroke="none" stroke-width="1" fill="none" fill-rule="evenodd">
        <g id="waves" fill="#192E38">
            <path d="M0,0 L300,0 L300,50 L0,50 L0,0 Z M50,25 C50,38.8071187 38.8071187,50 25,50 C11.1928813,50 0,38.8071187 0,25 L0,0 L300,0 L300,25 C300,38.8071187 288.807119,50 275,50 C261.192881,50 250,38.8071187 250,25 L250,25 C250,38.8071187 238.807119,50 225,50 C211.192881,50 200,38.8071187 200,25 L150,25 C150,38.8071187 161.192881,50 175,50 C188.807119,50 200,38.8071187 200,25 L250,25 L50,25 Z M100,25 C100,38.8071187 88.8071187,50 75,50 C61.1928813,50 50,38.8071187 50,25 L50,25 L100,25 Z M150,25 C150,38.8071187 138.807119,50 125,50 C111.192881,50 100,38.8071187 100,25 L100,25 L150,25 Z" id="Combined-Shape"></path>
        </g>
    </g>
</svg>