<?xml version="1.0" encoding="UTF-8" standalone="no"?>
<svg width="300px" height="300px" viewBox="0 0 300 300" version="1.1" xmlns="http://www.w3.org/2000/svg" xmlns:xlink="http://www.w3.org/1999/xlink">
    <!-- Generator: Sketch 3.8.2 (29753) - http://www.bohemiancoding.com/sketch -->
    <title>#111.green</title>
    <desc>Created with Sketch.</desc>
    <defs>
        <circle id="path-1" cx="150.5" cy="150.5" r="137.5"></circle>
        <mask id="mask-2" maskContentUnits="userSpaceOnUse" maskUnits="objectBoundingBox" x="-2" y="-2" width="279" height="279">
            <rect x="11" y="11" width="279" height="279" fill="white"></rect>
            <use xlink:href="#path-1" fill="black"></use>
        </mask>
    </defs>
    <g id="Page-1" stroke="none" stroke-width="1" fill="none" fill-rule="evenodd">
        <g id="#111.green">
            <g id="Oval-1">
                <use fill="#227737" fill-rule="evenodd" xlink:href="#path-1"></use>
                <use stroke-opacity="0.5" stroke="#000000" mask="url(#mask-2)" stroke-width="4" xlink:href="#path-1"></use>
            </g>
            <path d="M51.45,110.3 C53.2833425,110.333334 55.133324,110.641664 57,111.225 C58.866676,111.808336 60.4833265,112.683328 61.85,113.85 L57.8,118.05 C57.0333295,117.183329 56.0750058,116.525002 54.925,116.075 C53.7749943,115.624998 52.6166725,115.4 51.45,115.4 L51.45,125.5 C52.716673,125.900002 53.983327,126.366664 55.25,126.9 C56.516673,127.433336 57.6583283,128.108329 58.675,128.925 C59.6916717,129.741671 60.5166635,130.733328 61.15,131.9 C61.7833365,133.066673 62.1,134.499992 62.1,136.2 C62.1,137.933342 61.8083363,139.458327 61.225,140.775 C60.6416638,142.091673 59.8583383,143.191662 58.875,144.075 C57.8916618,144.958338 56.7583398,145.633331 55.475,146.1 C54.1916603,146.566669 52.850007,146.816666 51.45,146.85 L51.45,150.45 L48.75,150.45 L48.75,146.85 C46.549989,146.783333 44.4416767,146.375004 42.425,145.625 C40.4083233,144.874996 38.600008,143.733341 37,142.2 L41.4,138 C42.3000045,139.066672 43.4333265,139.941663 44.8,140.625 C46.1666735,141.308337 47.483327,141.666667 48.75,141.7 L48.75,130.6 C47.283326,130.199998 45.916673,129.741669 44.65,129.225 C43.383327,128.708331 42.2750048,128.050004 41.325,127.25 C40.3749953,126.449996 39.633336,125.491672 39.1,124.375 C38.566664,123.258328 38.3,121.900008 38.3,120.3 C38.3,118.799993 38.5916638,117.458339 39.175,116.275 C39.7583363,115.091661 40.5416618,114.083338 41.525,113.25 C42.5083383,112.416663 43.6249938,111.758336 44.875,111.275 C46.1250062,110.791664 47.41666,110.500001 48.75,110.4 L48.75,107 L51.45,107 L51.45,110.3 Z M48.75,115.4 C47.5833275,115.533334 46.5500045,115.966663 45.65,116.7 C44.7499955,117.433337 44.3,118.533326 44.3,120 C44.3,121.400007 44.7249958,122.45833 45.575,123.175 C46.4250043,123.89167 47.483327,124.433332 48.75,124.8 L48.75,115.4 Z M51.45,141.7 C52.850007,141.633333 53.9749958,141.133338 54.825,140.2 C55.6750043,139.266662 56.1,138.050008 56.1,136.55 C56.1,135.083326 55.6583378,133.975004 54.775,133.225 C53.8916623,132.474996 52.78334,131.866669 51.45,131.4 L51.45,141.7 Z" id="$" fill="#FFFFFF" opacity="0.404092817"></path>
            <path d="M249,128.6 C249,131.466681 248.725003,134.049988 248.175,136.35 C247.624997,138.650012 246.825005,140.599992 245.775,142.2 C244.724995,143.800008 243.425008,145.033329 241.875,145.9 C240.324992,146.766671 238.55001,147.2 236.55,147.2 C234.54999,147.2 232.766674,146.766671 231.2,145.9 C229.633326,145.033329 228.316672,143.800008 227.25,142.2 C226.183328,140.599992 225.375003,138.650012 224.825,136.35 C224.274997,134.049988 224,131.466681 224,128.6 C224,125.733319 224.274997,123.150011 224.825,120.85 C225.375003,118.549988 226.183328,116.600008 227.25,115 C228.316672,113.399992 229.633326,112.166671 231.2,111.3 C232.766674,110.433329 234.54999,110 236.55,110 C238.55001,110 240.324992,110.433329 241.875,111.3 C243.425008,112.166671 244.724995,113.399992 245.775,115 C246.825005,116.600008 247.624997,118.549988 248.175,120.85 C248.725003,123.150011 249,125.733319 249,128.6 L249,128.6 L249,128.6 Z M242.85,128.6 C242.85,127.366661 242.775001,125.966674 242.625,124.4 C242.474999,122.833325 242.175002,121.350007 241.725,119.95 C241.274998,118.549993 240.633338,117.375005 239.8,116.425 C238.966663,115.474995 237.88334,115 236.55,115 C235.183327,115 234.083338,115.474995 233.25,116.425 C232.416663,117.375005 231.775002,118.549993 231.325,119.95 C230.874998,121.350007 230.566668,122.833325 230.4,124.4 C230.233333,125.966674 230.15,127.366661 230.15,128.6 C230.15,129.83334 230.233333,131.233325 230.4,132.8 C230.566668,134.366674 230.874998,135.833326 231.325,137.2 C231.775002,138.566673 232.416663,139.724995 233.25,140.675 C234.083338,141.625005 235.183327,142.1 236.55,142.1 C237.88334,142.1 238.966663,141.625005 239.8,140.675 C240.633338,139.724995 241.274998,138.566673 241.725,137.2 C242.175002,135.833326 242.474999,134.366674 242.625,132.8 C242.775001,131.233325 242.85,129.83334 242.85,128.6 L242.85,128.6 L242.85,128.6 Z M276.166666,128.6 C276.166666,131.466681 275.891669,134.049988 275.341666,136.35 C274.791663,138.650012 273.991671,140.599992 272.941666,142.2 C271.891661,143.800008 270.591674,145.033329 269.041666,145.9 C267.491658,146.766671 265.716676,147.2 263.716666,147.2 C261.716656,147.2 259.933341,146.766671 258.366666,145.9 C256.799992,145.033329 255.483338,143.800008 254.416666,142.2 C253.349994,140.599992 252.541669,138.650012 251.991666,136.35 C251.441663,134.049988 251.166666,131.466681 251.166666,128.6 C251.166666,125.733319 251.441663,123.150011 251.991666,120.85 C252.541669,118.549988 253.349994,116.600008 254.416666,115 C255.483338,113.399992 256.799992,112.166671 258.366666,111.3 C259.933341,110.433329 261.716656,110 263.716666,110 C265.716676,110 267.491658,110.433329 269.041666,111.3 C270.591674,112.166671 271.891661,113.399992 272.941666,115 C273.991671,116.600008 274.791663,118.549988 275.341666,120.85 C275.891669,123.150011 276.166666,125.733319 276.166666,128.6 L276.166666,128.6 L276.166666,128.6 Z M270.016666,128.6 C270.016666,127.366661 269.941667,125.966674 269.791666,124.4 C269.641665,122.833325 269.341668,121.350007 268.891666,119.95 C268.441664,118.549993 267.800004,117.375005 266.966666,116.425 C266.133329,115.474995 265.050006,115 263.716666,115 C262.349993,115 261.250004,115.474995 260.416666,116.425 C259.583329,117.375005 258.941668,118.549993 258.491666,119.95 C258.041664,121.350007 257.733334,122.833325 257.566666,124.4 C257.399999,125.966674 257.316666,127.366661 257.316666,128.6 C257.316666,129.83334 257.399999,131.233325 257.566666,132.8 C257.733334,134.366674 258.041664,135.833326 258.491666,137.2 C258.941668,138.566673 259.583329,139.724995 260.416666,140.675 C261.250004,141.625005 262.349993,142.1 263.716666,142.1 C265.050006,142.1 266.133329,141.625005 266.966666,140.675 C267.800004,139.724995 268.441664,138.566673 268.891666,137.2 C269.341668,135.833326 269.641665,134.366674 269.791666,132.8 C269.941667,131.233325 270.016666,129.83334 270.016666,128.6 L270.016666,128.6 L270.016666,128.6 Z" id="00" fill="#FFFFFF" opacity="0.4"></path>
            <rect id="Rectangle-1" fill="#FFFFFF" opacity="0.4" x="225" y="152" width="50" height="5"></rect>
            <text id="111" transform="translate(127.737129, 166.290772) rotate(-6.000000) translate(-127.737129, -166.290772) " font-family="AvenirNext-Bold, Avenir Next" font-size="150" font-weight="bold" letter-spacing="-38.0769043" fill="#FFFFFF">
                <tspan x="39.5024854" y="213.790772">111</tspan>
            </text>
        </g>
    </g>
</svg>