<?xml version="1.0" encoding="UTF-8" standalone="no"?>
<svg width="300px" height="300px" viewBox="0 0 300 300" version="1.1" xmlns="http://www.w3.org/2000/svg" xmlns:xlink="http://www.w3.org/1999/xlink">
    <!-- Generator: Sketch 3.8.2 (29753) - http://www.bohemiancoding.com/sketch -->
    <title>$1.red</title>
    <desc>Created with Sketch.</desc>
    <defs>
        <circle id="path-1" cx="2150" cy="152" r="137.5"></circle>
        <mask id="mask-2" maskContentUnits="userSpaceOnUse" maskUnits="objectBoundingBox" x="0" y="0" width="275" height="275" fill="white">
            <use xlink:href="#path-1"></use>
        </mask>
    </defs>
    <g id="Page-1" stroke="none" stroke-width="1" fill="none" fill-rule="evenodd">
        <g id="price-tags" transform="translate(-2000.000000, 0.000000)">
            <use id="Oval-1-Copy-5" stroke-opacity="0.33" stroke="#000000" mask="url(#mask-2)" stroke-width="4" fill="#8A2830" xlink:href="#path-1"></use>
            <path d="M2101.45,109.3 C2103.28334,109.333334 2105.13332,109.641664 2107,110.225 C2108.86668,110.808336 2110.48333,111.683328 2111.85,112.85 L2107.8,117.05 C2107.03333,116.183329 2106.07501,115.525002 2104.925,115.075 C2103.77499,114.624998 2102.61667,114.4 2101.45,114.4 L2101.45,124.5 C2102.71667,124.900002 2103.98333,125.366664 2105.25,125.9 C2106.51667,126.433336 2107.65833,127.108329 2108.675,127.925 C2109.69167,128.741671 2110.51666,129.733328 2111.15,130.9 C2111.78334,132.066673 2112.1,133.499992 2112.1,135.2 C2112.1,136.933342 2111.80834,138.458327 2111.225,139.775 C2110.64166,141.091673 2109.85834,142.191662 2108.875,143.075 C2107.89166,143.958338 2106.75834,144.633331 2105.475,145.1 C2104.19166,145.566669 2102.85001,145.816666 2101.45,145.85 L2101.45,149.45 L2098.75,149.45 L2098.75,145.85 C2096.54999,145.783333 2094.44168,145.375004 2092.425,144.625 C2090.40832,143.874996 2088.60001,142.733341 2087,141.2 L2091.4,137 C2092.3,138.066672 2093.43333,138.941663 2094.8,139.625 C2096.16667,140.308337 2097.48333,140.666667 2098.75,140.7 L2098.75,129.6 C2097.28333,129.199998 2095.91667,128.741669 2094.65,128.225 C2093.38333,127.708331 2092.275,127.050004 2091.325,126.25 C2090.375,125.449996 2089.63334,124.491672 2089.1,123.375 C2088.56666,122.258328 2088.3,120.900008 2088.3,119.3 C2088.3,117.799993 2088.59166,116.458339 2089.175,115.275 C2089.75834,114.091661 2090.54166,113.083338 2091.525,112.25 C2092.50834,111.416663 2093.62499,110.758336 2094.875,110.275 C2096.12501,109.791664 2097.41666,109.500001 2098.75,109.4 L2098.75,106 L2101.45,106 L2101.45,109.3 Z M2098.75,114.4 C2097.58333,114.533334 2096.55,114.966663 2095.65,115.7 C2094.75,116.433337 2094.3,117.533326 2094.3,119 C2094.3,120.400007 2094.725,121.45833 2095.575,122.175 C2096.425,122.89167 2097.48333,123.433331 2098.75,123.8 L2098.75,114.4 Z M2101.45,140.7 C2102.85001,140.633333 2103.975,140.133338 2104.825,139.2 C2105.675,138.266662 2106.1,137.050007 2106.1,135.55 C2106.1,134.083326 2105.65834,132.975004 2104.775,132.225 C2103.89166,131.474996 2102.78334,130.866669 2101.45,130.4 L2101.45,140.7 Z" id="$-copy-6" fill="#FFFFFF" opacity="0.404092817"></path>
            <path d="M2198.91667,127.6 C2198.91667,130.466681 2198.64167,133.049989 2198.09167,135.35 C2197.54166,137.650012 2196.74167,139.599992 2195.69167,141.2 C2194.64166,142.800008 2193.34167,144.033329 2191.79167,144.9 C2190.24166,145.766671 2188.46668,146.2 2186.46667,146.2 C2184.46666,146.2 2182.68334,145.766671 2181.11667,144.9 C2179.54999,144.033329 2178.23334,142.800008 2177.16667,141.2 C2176.09999,139.599992 2175.29167,137.650012 2174.74167,135.35 C2174.19166,133.049989 2173.91667,130.466681 2173.91667,127.6 C2173.91667,124.733319 2174.19166,122.150012 2174.74167,119.85 C2175.29167,117.549989 2176.09999,115.600008 2177.16667,114 C2178.23334,112.399992 2179.54999,111.166671 2181.11667,110.3 C2182.68334,109.433329 2184.46666,109 2186.46667,109 C2188.46668,109 2190.24166,109.433329 2191.79167,110.3 C2193.34167,111.166671 2194.64166,112.399992 2195.69167,114 C2196.74167,115.600008 2197.54166,117.549989 2198.09167,119.85 C2198.64167,122.150012 2198.91667,124.733319 2198.91667,127.6 L2198.91667,127.6 L2198.91667,127.6 Z M2192.76667,127.6 C2192.76667,126.366661 2192.69167,124.966675 2192.54167,123.4 C2192.39167,121.833326 2192.09167,120.350007 2191.64167,118.95 C2191.19166,117.549993 2190.55,116.375005 2189.71667,115.425 C2188.88333,114.474995 2187.80001,114 2186.46667,114 C2185.09999,114 2184,114.474995 2183.16667,115.425 C2182.33333,116.375005 2181.69167,117.549993 2181.24167,118.95 C2180.79166,120.350007 2180.48333,121.833326 2180.31667,123.4 C2180.15,124.966675 2180.06667,126.366661 2180.06667,127.6 C2180.06667,128.83334 2180.15,130.233326 2180.31667,131.8 C2180.48333,133.366675 2180.79166,134.833326 2181.24167,136.2 C2181.69167,137.566674 2182.33333,138.724995 2183.16667,139.675 C2184,140.625005 2185.09999,141.1 2186.46667,141.1 C2187.80001,141.1 2188.88333,140.625005 2189.71667,139.675 C2190.55,138.724995 2191.19166,137.566674 2191.64167,136.2 C2192.09167,134.833326 2192.39167,133.366675 2192.54167,131.8 C2192.69167,130.233326 2192.76667,128.83334 2192.76667,127.6 L2192.76667,127.6 L2192.76667,127.6 Z M2226.08333,127.6 C2226.08333,130.466681 2225.80834,133.049989 2225.25833,135.35 C2224.70833,137.650012 2223.90834,139.599992 2222.85833,141.2 C2221.80833,142.800008 2220.50834,144.033329 2218.95833,144.9 C2217.40833,145.766671 2215.63334,146.2 2213.63333,146.2 C2211.63332,146.2 2209.85001,145.766671 2208.28333,144.9 C2206.71666,144.033329 2205.40001,142.800008 2204.33333,141.2 C2203.26666,139.599992 2202.45834,137.650012 2201.90833,135.35 C2201.35833,133.049989 2201.08333,130.466681 2201.08333,127.6 C2201.08333,124.733319 2201.35833,122.150012 2201.90833,119.85 C2202.45834,117.549989 2203.26666,115.600008 2204.33333,114 C2205.40001,112.399992 2206.71666,111.166671 2208.28333,110.3 C2209.85001,109.433329 2211.63332,109 2213.63333,109 C2215.63334,109 2217.40833,109.433329 2218.95833,110.3 C2220.50834,111.166671 2221.80833,112.399992 2222.85833,114 C2223.90834,115.600008 2224.70833,117.549989 2225.25833,119.85 C2225.80834,122.150012 2226.08333,124.733319 2226.08333,127.6 L2226.08333,127.6 L2226.08333,127.6 Z M2219.93333,127.6 C2219.93333,126.366661 2219.85833,124.966675 2219.70833,123.4 C2219.55833,121.833326 2219.25834,120.350007 2218.80833,118.95 C2218.35833,117.549993 2217.71667,116.375005 2216.88333,115.425 C2216.05,114.474995 2214.96667,114 2213.63333,114 C2212.26666,114 2211.16667,114.474995 2210.33333,115.425 C2209.5,116.375005 2208.85834,117.549993 2208.40833,118.95 C2207.95833,120.350007 2207.65,121.833326 2207.48333,123.4 C2207.31667,124.966675 2207.23333,126.366661 2207.23333,127.6 C2207.23333,128.83334 2207.31667,130.233326 2207.48333,131.8 C2207.65,133.366675 2207.95833,134.833326 2208.40833,136.2 C2208.85834,137.566674 2209.5,138.724995 2210.33333,139.675 C2211.16667,140.625005 2212.26666,141.1 2213.63333,141.1 C2214.96667,141.1 2216.05,140.625005 2216.88333,139.675 C2217.71667,138.724995 2218.35833,137.566674 2218.80833,136.2 C2219.25834,134.833326 2219.55833,133.366675 2219.70833,131.8 C2219.85833,130.233326 2219.93333,128.83334 2219.93333,127.6 L2219.93333,127.6 L2219.93333,127.6 Z" id="00-copy-4" fill="#FFFFFF" opacity="0.4"></path>
            <rect id="Rectangle-1-Copy-4" fill="#FFFFFF" opacity="0.4" x="2174.91667" y="151" width="50" height="5"></rect>
            <text id="1" opacity="0.92" transform="translate(2126.113162, 171.057830) rotate(-6.000000) translate(-2126.113162, -171.057830) " font-family="AvenirNext-Bold, Avenir Next" font-size="175" font-weight="bold" letter-spacing="-44.4230347" fill="#FFFFFF">
                <tspan x="2091.79968" y="226.55783">1</tspan>
            </text>
        </g>
    </g>
</svg>