<?xml version="1.0" encoding="UTF-8" standalone="no"?>
<svg width="300px" height="300px" viewBox="0 0 300 300" version="1.1" xmlns="http://www.w3.org/2000/svg" xmlns:xlink="http://www.w3.org/1999/xlink">
    <!-- Generator: Sketch 3.8.2 (29753) - http://www.bohemiancoding.com/sketch -->
    <title>$11.orange</title>
    <desc>Created with Sketch.</desc>
    <defs>
        <circle id="path-1" cx="1750.5" cy="152.5" r="137.5"></circle>
        <mask id="mask-2" maskContentUnits="userSpaceOnUse" maskUnits="objectBoundingBox" x="0" y="0" width="275" height="275" fill="white">
            <use xlink:href="#path-1"></use>
        </mask>
    </defs>
    <g id="Page-1" stroke="none" stroke-width="1" fill="none" fill-rule="evenodd">
        <g id="price-tags" transform="translate(-1600.000000, 0.000000)">
            <use id="Oval-1-Copy-4" stroke-opacity="0.33" stroke="#000000" mask="url(#mask-2)" stroke-width="4" fill="#C26F0A" xlink:href="#path-1"></use>
            <path d="M1649.45,109.3 C1651.28334,109.333334 1653.13332,109.641664 1655,110.225 C1656.86668,110.808336 1658.48333,111.683328 1659.85,112.85 L1655.8,117.05 C1655.03333,116.183329 1654.07501,115.525002 1652.925,115.075 C1651.77499,114.624998 1650.61667,114.4 1649.45,114.4 L1649.45,124.5 C1650.71667,124.900002 1651.98333,125.366664 1653.25,125.9 C1654.51667,126.433336 1655.65833,127.108329 1656.675,127.925 C1657.69167,128.741671 1658.51666,129.733328 1659.15,130.9 C1659.78334,132.066673 1660.1,133.499992 1660.1,135.2 C1660.1,136.933342 1659.80834,138.458327 1659.225,139.775 C1658.64166,141.091673 1657.85834,142.191662 1656.875,143.075 C1655.89166,143.958338 1654.75834,144.633331 1653.475,145.1 C1652.19166,145.566669 1650.85001,145.816666 1649.45,145.85 L1649.45,149.45 L1646.75,149.45 L1646.75,145.85 C1644.54999,145.783333 1642.44168,145.375004 1640.425,144.625 C1638.40832,143.874996 1636.60001,142.733341 1635,141.2 L1639.4,137 C1640.3,138.066672 1641.43333,138.941663 1642.8,139.625 C1644.16667,140.308337 1645.48333,140.666667 1646.75,140.7 L1646.75,129.6 C1645.28333,129.199998 1643.91667,128.741669 1642.65,128.225 C1641.38333,127.708331 1640.275,127.050004 1639.325,126.25 C1638.375,125.449996 1637.63334,124.491672 1637.1,123.375 C1636.56666,122.258328 1636.3,120.900008 1636.3,119.3 C1636.3,117.799993 1636.59166,116.458339 1637.175,115.275 C1637.75834,114.091661 1638.54166,113.083338 1639.525,112.25 C1640.50834,111.416663 1641.62499,110.758336 1642.875,110.275 C1644.12501,109.791664 1645.41666,109.500001 1646.75,109.4 L1646.75,106 L1649.45,106 L1649.45,109.3 Z M1646.75,114.4 C1645.58333,114.533334 1644.55,114.966663 1643.65,115.7 C1642.75,116.433337 1642.3,117.533326 1642.3,119 C1642.3,120.400007 1642.725,121.45833 1643.575,122.175 C1644.425,122.89167 1645.48333,123.433331 1646.75,123.8 L1646.75,114.4 Z M1649.45,140.7 C1650.85001,140.633333 1651.975,140.133338 1652.825,139.2 C1653.675,138.266662 1654.1,137.050007 1654.1,135.55 C1654.1,134.083326 1653.65834,132.975004 1652.775,132.225 C1651.89166,131.474996 1650.78334,130.866669 1649.45,130.4 L1649.45,140.7 Z" id="$-copy-3" fill="#FFFFFF" opacity="0.404092817"></path>
            <path d="M1838,127.6 C1838,130.466681 1837.725,133.049989 1837.175,135.35 C1836.625,137.650012 1835.82501,139.599992 1834.775,141.2 C1833.72499,142.800008 1832.42501,144.033329 1830.875,144.9 C1829.32499,145.766671 1827.55001,146.2 1825.55,146.2 C1823.54999,146.2 1821.76667,145.766671 1820.2,144.9 C1818.63333,144.033329 1817.31667,142.800008 1816.25,141.2 C1815.18333,139.599992 1814.375,137.650012 1813.825,135.35 C1813.275,133.049989 1813,130.466681 1813,127.6 C1813,124.733319 1813.275,122.150012 1813.825,119.85 C1814.375,117.549989 1815.18333,115.600008 1816.25,114 C1817.31667,112.399992 1818.63333,111.166671 1820.2,110.3 C1821.76667,109.433329 1823.54999,109 1825.55,109 C1827.55001,109 1829.32499,109.433329 1830.875,110.3 C1832.42501,111.166671 1833.72499,112.399992 1834.775,114 C1835.82501,115.600008 1836.625,117.549989 1837.175,119.85 C1837.725,122.150012 1838,124.733319 1838,127.6 L1838,127.6 L1838,127.6 Z M1831.85,127.6 C1831.85,126.366661 1831.775,124.966674 1831.625,123.4 C1831.475,121.833325 1831.175,120.350007 1830.725,118.95 C1830.275,117.549993 1829.63334,116.375005 1828.8,115.425 C1827.96666,114.474995 1826.88334,114 1825.55,114 C1824.18333,114 1823.08334,114.474995 1822.25,115.425 C1821.41666,116.375005 1820.775,117.549993 1820.325,118.95 C1819.875,120.350007 1819.56667,121.833325 1819.4,123.4 C1819.23333,124.966674 1819.15,126.366661 1819.15,127.6 C1819.15,128.83334 1819.23333,130.233325 1819.4,131.8 C1819.56667,133.366674 1819.875,134.833326 1820.325,136.2 C1820.775,137.566673 1821.41666,138.724995 1822.25,139.675 C1823.08334,140.625005 1824.18333,141.1 1825.55,141.1 C1826.88334,141.1 1827.96666,140.625005 1828.8,139.675 C1829.63334,138.724995 1830.275,137.566673 1830.725,136.2 C1831.175,134.833326 1831.475,133.366674 1831.625,131.8 C1831.775,130.233325 1831.85,128.83334 1831.85,127.6 L1831.85,127.6 L1831.85,127.6 Z M1865.16667,127.6 C1865.16667,130.466681 1864.89167,133.049989 1864.34167,135.35 C1863.79166,137.650012 1862.99167,139.599992 1861.94167,141.2 C1860.89166,142.800008 1859.59167,144.033329 1858.04167,144.9 C1856.49166,145.766671 1854.71668,146.2 1852.71667,146.2 C1850.71666,146.2 1848.93334,145.766671 1847.36667,144.9 C1845.79999,144.033329 1844.48334,142.800008 1843.41667,141.2 C1842.34999,139.599992 1841.54167,137.650012 1840.99167,135.35 C1840.44166,133.049989 1840.16667,130.466681 1840.16667,127.6 C1840.16667,124.733319 1840.44166,122.150012 1840.99167,119.85 C1841.54167,117.549989 1842.34999,115.600008 1843.41667,114 C1844.48334,112.399992 1845.79999,111.166671 1847.36667,110.3 C1848.93334,109.433329 1850.71666,109 1852.71667,109 C1854.71668,109 1856.49166,109.433329 1858.04167,110.3 C1859.59167,111.166671 1860.89166,112.399992 1861.94167,114 C1862.99167,115.600008 1863.79166,117.549989 1864.34167,119.85 C1864.89167,122.150012 1865.16667,124.733319 1865.16667,127.6 L1865.16667,127.6 L1865.16667,127.6 Z M1859.01667,127.6 C1859.01667,126.366661 1858.94167,124.966674 1858.79167,123.4 C1858.64167,121.833325 1858.34167,120.350007 1857.89167,118.95 C1857.44166,117.549993 1856.8,116.375005 1855.96667,115.425 C1855.13333,114.474995 1854.05001,114 1852.71667,114 C1851.34999,114 1850.25,114.474995 1849.41667,115.425 C1848.58333,116.375005 1847.94167,117.549993 1847.49167,118.95 C1847.04166,120.350007 1846.73333,121.833325 1846.56667,123.4 C1846.4,124.966674 1846.31667,126.366661 1846.31667,127.6 C1846.31667,128.83334 1846.4,130.233325 1846.56667,131.8 C1846.73333,133.366674 1847.04166,134.833326 1847.49167,136.2 C1847.94167,137.566673 1848.58333,138.724995 1849.41667,139.675 C1850.25,140.625005 1851.34999,141.1 1852.71667,141.1 C1854.05001,141.1 1855.13333,140.625005 1855.96667,139.675 C1856.8,138.724995 1857.44166,137.566673 1857.89167,136.2 C1858.34167,134.833326 1858.64167,133.366674 1858.79167,131.8 C1858.94167,130.233325 1859.01667,128.83334 1859.01667,127.6 L1859.01667,127.6 L1859.01667,127.6 Z" id="00-copy-2" fill="#FFFFFF" opacity="0.4"></path>
            <rect id="Rectangle-1-Copy-2" fill="#FFFFFF" opacity="0.4" x="1814" y="151" width="50" height="5"></rect>
            <text id="11" opacity="0.92" transform="translate(1719.113162, 171.057830) rotate(-6.000000) translate(-1719.113162, -171.057830) " font-family="AvenirNext-Bold, Avenir Next" font-size="175" font-weight="bold" letter-spacing="-44.4230347" fill="#FFFFFF">
                <tspan x="1650.4862" y="226.55783">11</tspan>
            </text>
        </g>
    </g>
</svg>