<?xml version="1.0" encoding="UTF-8" standalone="no"?>
<svg width="300px" height="300px" viewBox="0 0 300 300" version="1.1" xmlns="http://www.w3.org/2000/svg" xmlns:xlink="http://www.w3.org/1999/xlink">
    <!-- Generator: Sketch 3.8.2 (29753) - http://www.bohemiancoding.com/sketch -->
    <title>$111.green</title>
    <desc>Created with Sketch.</desc>
    <defs>
        <circle id="path-1" cx="550.5" cy="150.5" r="137.5"></circle>
        <mask id="mask-2" maskContentUnits="userSpaceOnUse" maskUnits="objectBoundingBox" x="-0.5" y="-0.5" width="276" height="276">
            <rect x="412.5" y="12.5" width="276" height="276" fill="white"></rect>
            <use xlink:href="#path-1" fill="black"></use>
        </mask>
    </defs>
    <g id="Page-1" stroke="none" stroke-width="1" fill="none" fill-rule="evenodd">
        <g id="price-tags" transform="translate(-400.000000, 0.000000)">
            <g id="Oval-1">
                <use fill="#217032" fill-rule="evenodd" xlink:href="#path-1"></use>
                <use stroke-opacity="0.33" stroke="#000000" mask="url(#mask-2)" stroke-width="1" xlink:href="#path-1"></use>
            </g>
            <path d="M451.45,110.3 C453.283343,110.333334 455.133324,110.641664 457,111.225 C458.866676,111.808336 460.483326,112.683328 461.85,113.85 L457.8,118.05 C457.03333,117.183329 456.075006,116.525002 454.925,116.075 C453.774994,115.624998 452.616672,115.4 451.45,115.4 L451.45,125.5 C452.716673,125.900002 453.983327,126.366664 455.25,126.9 C456.516673,127.433336 457.658328,128.108329 458.675,128.925 C459.691672,129.741671 460.516663,130.733328 461.15,131.9 C461.783337,133.066673 462.1,134.499992 462.1,136.2 C462.1,137.933342 461.808336,139.458327 461.225,140.775 C460.641664,142.091673 459.858338,143.191662 458.875,144.075 C457.891662,144.958338 456.75834,145.633331 455.475,146.1 C454.19166,146.566669 452.850007,146.816666 451.45,146.85 L451.45,150.45 L448.75,150.45 L448.75,146.85 C446.549989,146.783333 444.441677,146.375004 442.425,145.625 C440.408323,144.874996 438.600008,143.733341 437,142.2 L441.4,138 C442.300005,139.066672 443.433327,139.941663 444.8,140.625 C446.166674,141.308337 447.483327,141.666667 448.75,141.7 L448.75,130.6 C447.283326,130.199998 445.916673,129.741669 444.65,129.225 C443.383327,128.708331 442.275005,128.050004 441.325,127.25 C440.374995,126.449996 439.633336,125.491672 439.1,124.375 C438.566664,123.258328 438.3,121.900008 438.3,120.3 C438.3,118.799993 438.591664,117.458339 439.175,116.275 C439.758336,115.091661 440.541662,114.083338 441.525,113.25 C442.508338,112.416663 443.624994,111.758336 444.875,111.275 C446.125006,110.791664 447.41666,110.500001 448.75,110.4 L448.75,107 L451.45,107 L451.45,110.3 Z M448.75,115.4 C447.583327,115.533334 446.550005,115.966663 445.65,116.7 C444.749996,117.433337 444.3,118.533326 444.3,120 C444.3,121.400007 444.724996,122.45833 445.575,123.175 C446.425004,123.89167 447.483327,124.433332 448.75,124.8 L448.75,115.4 Z M451.45,141.7 C452.850007,141.633333 453.974996,141.133338 454.825,140.2 C455.675004,139.266662 456.1,138.050008 456.1,136.55 C456.1,135.083326 455.658338,133.975004 454.775,133.225 C453.891662,132.474996 452.78334,131.866669 451.45,131.4 L451.45,141.7 Z" id="$" fill="#FFFFFF" opacity="0.404092817"></path>
            <path d="M649,128.6 C649,131.466681 648.725003,134.049989 648.175,136.35 C647.624997,138.650012 646.825005,140.599992 645.775,142.2 C644.724995,143.800008 643.425008,145.033329 641.875,145.9 C640.324992,146.766671 638.55001,147.2 636.55,147.2 C634.54999,147.2 632.766675,146.766671 631.2,145.9 C629.633326,145.033329 628.316672,143.800008 627.25,142.2 C626.183328,140.599992 625.375003,138.650012 624.825,136.35 C624.274997,134.049989 624,131.466681 624,128.6 C624,125.733319 624.274997,123.150012 624.825,120.85 C625.375003,118.549989 626.183328,116.600008 627.25,115 C628.316672,113.399992 629.633326,112.166671 631.2,111.3 C632.766675,110.433329 634.54999,110 636.55,110 C638.55001,110 640.324992,110.433329 641.875,111.3 C643.425008,112.166671 644.724995,113.399992 645.775,115 C646.825005,116.600008 647.624997,118.549989 648.175,120.85 C648.725003,123.150012 649,125.733319 649,128.6 L649,128.6 L649,128.6 Z M642.85,128.6 C642.85,127.366661 642.775001,125.966674 642.625,124.4 C642.474999,122.833325 642.175002,121.350007 641.725,119.95 C641.274998,118.549993 640.633338,117.375005 639.8,116.425 C638.966663,115.474995 637.88334,115 636.55,115 C635.183327,115 634.083338,115.474995 633.25,116.425 C632.416663,117.375005 631.775002,118.549993 631.325,119.95 C630.874998,121.350007 630.566668,122.833325 630.4,124.4 C630.233333,125.966674 630.15,127.366661 630.15,128.6 C630.15,129.83334 630.233333,131.233325 630.4,132.8 C630.566668,134.366674 630.874998,135.833326 631.325,137.2 C631.775002,138.566673 632.416663,139.724995 633.25,140.675 C634.083338,141.625005 635.183327,142.1 636.55,142.1 C637.88334,142.1 638.966663,141.625005 639.8,140.675 C640.633338,139.724995 641.274998,138.566673 641.725,137.2 C642.175002,135.833326 642.474999,134.366674 642.625,132.8 C642.775001,131.233325 642.85,129.83334 642.85,128.6 L642.85,128.6 L642.85,128.6 Z M676.166666,128.6 C676.166666,131.466681 675.891669,134.049989 675.341666,136.35 C674.791663,138.650012 673.991671,140.599992 672.941666,142.2 C671.891661,143.800008 670.591674,145.033329 669.041666,145.9 C667.491658,146.766671 665.716676,147.2 663.716666,147.2 C661.716656,147.2 659.933341,146.766671 658.366666,145.9 C656.799992,145.033329 655.483338,143.800008 654.416666,142.2 C653.349994,140.599992 652.541669,138.650012 651.991666,136.35 C651.441663,134.049989 651.166666,131.466681 651.166666,128.6 C651.166666,125.733319 651.441663,123.150012 651.991666,120.85 C652.541669,118.549989 653.349994,116.600008 654.416666,115 C655.483338,113.399992 656.799992,112.166671 658.366666,111.3 C659.933341,110.433329 661.716656,110 663.716666,110 C665.716676,110 667.491658,110.433329 669.041666,111.3 C670.591674,112.166671 671.891661,113.399992 672.941666,115 C673.991671,116.600008 674.791663,118.549989 675.341666,120.85 C675.891669,123.150012 676.166666,125.733319 676.166666,128.6 L676.166666,128.6 L676.166666,128.6 Z M670.016666,128.6 C670.016666,127.366661 669.941667,125.966674 669.791666,124.4 C669.641665,122.833325 669.341668,121.350007 668.891666,119.95 C668.441664,118.549993 667.800004,117.375005 666.966666,116.425 C666.133329,115.474995 665.050006,115 663.716666,115 C662.349993,115 661.250004,115.474995 660.416666,116.425 C659.583329,117.375005 658.941668,118.549993 658.491666,119.95 C658.041664,121.350007 657.733334,122.833325 657.566666,124.4 C657.399999,125.966674 657.316666,127.366661 657.316666,128.6 C657.316666,129.83334 657.399999,131.233325 657.566666,132.8 C657.733334,134.366674 658.041664,135.833326 658.491666,137.2 C658.941668,138.566673 659.583329,139.724995 660.416666,140.675 C661.250004,141.625005 662.349993,142.1 663.716666,142.1 C665.050006,142.1 666.133329,141.625005 666.966666,140.675 C667.800004,139.724995 668.441664,138.566673 668.891666,137.2 C669.341668,135.833326 669.641665,134.366674 669.791666,132.8 C669.941667,131.233325 670.016666,129.83334 670.016666,128.6 L670.016666,128.6 L670.016666,128.6 Z" id="00" fill="#FFFFFF" opacity="0.4"></path>
            <rect id="Rectangle-1" fill="#FFFFFF" opacity="0.4" x="625" y="152" width="50" height="5"></rect>
            <text id="111" opacity="0.92" transform="translate(527.729355, 166.189263) rotate(-6.000000) translate(-527.729355, -166.189263) " font-family="AvenirNext-Bold, Avenir Next" font-size="150" font-weight="bold" letter-spacing="-38.0769043" fill="#FFFFFF">
                <tspan x="439.494712" y="213.689263">111</tspan>
            </text>
        </g>
    </g>
</svg>