<?xml version="1.0" encoding="UTF-8" standalone="no"?>
<svg width="300px" height="300px" viewBox="0 0 300 300" version="1.1" xmlns="http://www.w3.org/2000/svg" xmlns:xlink="http://www.w3.org/1999/xlink">
    <!-- Generator: Sketch 3.8.2 (29753) - http://www.bohemiancoding.com/sketch -->
    <title>$13.oceanblue</title>
    <desc>Created with Sketch.</desc>
    <defs>
        <path d="M1350.5,290 C1426.43915,290 1488,228.439153 1488,152.5 C1488,76.5608469 1426.43915,15 1350.5,15 C1274.56085,15 1213,76.5608469 1213,152.5 C1213,228.439153 1274.56085,290 1350.5,290 Z" id="path-1"></path>
        <mask id="mask-2" maskContentUnits="userSpaceOnUse" maskUnits="objectBoundingBox" x="0" y="0" width="275" height="275" fill="white">
            <use xlink:href="#path-1"></use>
        </mask>
    </defs>
    <g id="Page-1" stroke="none" stroke-width="1" fill="none" fill-rule="evenodd">
        <g id="price-tags" transform="translate(-1200.000000, 0.000000)">
            <use id="Oval-1-Copy-2" stroke-opacity="0.33" stroke="#000000" mask="url(#mask-2)" stroke-width="4" fill="#2C6886" xlink:href="#path-1"></use>
            <path d="M1249.45,109.3 C1251.28334,109.333334 1253.13332,109.641664 1255,110.225 C1256.86668,110.808336 1258.48333,111.683328 1259.85,112.85 L1255.8,117.05 C1255.03333,116.183329 1254.07501,115.525002 1252.925,115.075 C1251.77499,114.624998 1250.61667,114.4 1249.45,114.4 L1249.45,124.5 C1250.71667,124.900002 1251.98333,125.366664 1253.25,125.9 C1254.51667,126.433336 1255.65833,127.108329 1256.675,127.925 C1257.69167,128.741671 1258.51666,129.733328 1259.15,130.9 C1259.78334,132.066673 1260.1,133.499992 1260.1,135.2 C1260.1,136.933342 1259.80834,138.458327 1259.225,139.775 C1258.64166,141.091673 1257.85834,142.191662 1256.875,143.075 C1255.89166,143.958338 1254.75834,144.633331 1253.475,145.1 C1252.19166,145.566669 1250.85001,145.816666 1249.45,145.85 L1249.45,149.45 L1246.75,149.45 L1246.75,145.85 C1244.54999,145.783333 1242.44168,145.375004 1240.425,144.625 C1238.40832,143.874996 1236.60001,142.733341 1235,141.2 L1239.4,137 C1240.3,138.066672 1241.43333,138.941663 1242.8,139.625 C1244.16667,140.308337 1245.48333,140.666667 1246.75,140.7 L1246.75,129.6 C1245.28333,129.199998 1243.91667,128.741669 1242.65,128.225 C1241.38333,127.708331 1240.275,127.050004 1239.325,126.25 C1238.375,125.449996 1237.63334,124.491672 1237.1,123.375 C1236.56666,122.258328 1236.3,120.900008 1236.3,119.3 C1236.3,117.799993 1236.59166,116.458339 1237.175,115.275 C1237.75834,114.091661 1238.54166,113.083338 1239.525,112.25 C1240.50834,111.416663 1241.62499,110.758336 1242.875,110.275 C1244.12501,109.791664 1245.41666,109.500001 1246.75,109.4 L1246.75,106 L1249.45,106 L1249.45,109.3 Z M1246.75,114.4 C1245.58333,114.533334 1244.55,114.966663 1243.65,115.7 C1242.75,116.433337 1242.3,117.533326 1242.3,119 C1242.3,120.400007 1242.725,121.45833 1243.575,122.175 C1244.425,122.89167 1245.48333,123.433331 1246.75,123.8 L1246.75,114.4 Z M1249.45,140.7 C1250.85001,140.633333 1251.975,140.133338 1252.825,139.2 C1253.675,138.266662 1254.1,137.050007 1254.1,135.55 C1254.1,134.083326 1253.65834,132.975004 1252.775,132.225 C1251.89166,131.474996 1250.78334,130.866669 1249.45,130.4 L1249.45,140.7 Z" id="$-copy-2" fill="#FFFFFF" opacity="0.404092817"></path>
            <path d="M1438.5,127.6 C1438.5,130.466681 1438.225,133.049989 1437.675,135.35 C1437.125,137.650012 1436.32501,139.599992 1435.275,141.2 C1434.22499,142.800008 1432.92501,144.033329 1431.375,144.9 C1429.82499,145.766671 1428.05001,146.2 1426.05,146.2 C1424.04999,146.2 1422.26667,145.766671 1420.7,144.9 C1419.13333,144.033329 1417.81667,142.800008 1416.75,141.2 C1415.68333,139.599992 1414.875,137.650012 1414.325,135.35 C1413.775,133.049989 1413.5,130.466681 1413.5,127.6 C1413.5,124.733319 1413.775,122.150012 1414.325,119.85 C1414.875,117.549989 1415.68333,115.600008 1416.75,114 C1417.81667,112.399992 1419.13333,111.166671 1420.7,110.3 C1422.26667,109.433329 1424.04999,109 1426.05,109 C1428.05001,109 1429.82499,109.433329 1431.375,110.3 C1432.92501,111.166671 1434.22499,112.399992 1435.275,114 C1436.32501,115.600008 1437.125,117.549989 1437.675,119.85 C1438.225,122.150012 1438.5,124.733319 1438.5,127.6 L1438.5,127.6 L1438.5,127.6 Z M1432.35,127.6 C1432.35,126.366661 1432.275,124.966674 1432.125,123.4 C1431.975,121.833325 1431.675,120.350007 1431.225,118.95 C1430.775,117.549993 1430.13334,116.375005 1429.3,115.425 C1428.46666,114.474995 1427.38334,114 1426.05,114 C1424.68333,114 1423.58334,114.474995 1422.75,115.425 C1421.91666,116.375005 1421.275,117.549993 1420.825,118.95 C1420.375,120.350007 1420.06667,121.833325 1419.9,123.4 C1419.73333,124.966674 1419.65,126.366661 1419.65,127.6 C1419.65,128.83334 1419.73333,130.233325 1419.9,131.8 C1420.06667,133.366674 1420.375,134.833326 1420.825,136.2 C1421.275,137.566673 1421.91666,138.724995 1422.75,139.675 C1423.58334,140.625005 1424.68333,141.1 1426.05,141.1 C1427.38334,141.1 1428.46666,140.625005 1429.3,139.675 C1430.13334,138.724995 1430.775,137.566673 1431.225,136.2 C1431.675,134.833326 1431.975,133.366674 1432.125,131.8 C1432.275,130.233325 1432.35,128.83334 1432.35,127.6 L1432.35,127.6 L1432.35,127.6 Z M1465.66667,127.6 C1465.66667,130.466681 1465.39167,133.049989 1464.84167,135.35 C1464.29166,137.650012 1463.49167,139.599992 1462.44167,141.2 C1461.39166,142.800008 1460.09167,144.033329 1458.54167,144.9 C1456.99166,145.766671 1455.21668,146.2 1453.21667,146.2 C1451.21666,146.2 1449.43334,145.766671 1447.86667,144.9 C1446.29999,144.033329 1444.98334,142.800008 1443.91667,141.2 C1442.84999,139.599992 1442.04167,137.650012 1441.49167,135.35 C1440.94166,133.049989 1440.66667,130.466681 1440.66667,127.6 C1440.66667,124.733319 1440.94166,122.150012 1441.49167,119.85 C1442.04167,117.549989 1442.84999,115.600008 1443.91667,114 C1444.98334,112.399992 1446.29999,111.166671 1447.86667,110.3 C1449.43334,109.433329 1451.21666,109 1453.21667,109 C1455.21668,109 1456.99166,109.433329 1458.54167,110.3 C1460.09167,111.166671 1461.39166,112.399992 1462.44167,114 C1463.49167,115.600008 1464.29166,117.549989 1464.84167,119.85 C1465.39167,122.150012 1465.66667,124.733319 1465.66667,127.6 L1465.66667,127.6 L1465.66667,127.6 Z M1459.51667,127.6 C1459.51667,126.366661 1459.44167,124.966674 1459.29167,123.4 C1459.14167,121.833325 1458.84167,120.350007 1458.39167,118.95 C1457.94166,117.549993 1457.3,116.375005 1456.46667,115.425 C1455.63333,114.474995 1454.55001,114 1453.21667,114 C1451.84999,114 1450.75,114.474995 1449.91667,115.425 C1449.08333,116.375005 1448.44167,117.549993 1447.99167,118.95 C1447.54166,120.350007 1447.23333,121.833325 1447.06667,123.4 C1446.9,124.966674 1446.81667,126.366661 1446.81667,127.6 C1446.81667,128.83334 1446.9,130.233325 1447.06667,131.8 C1447.23333,133.366674 1447.54166,134.833326 1447.99167,136.2 C1448.44167,137.566673 1449.08333,138.724995 1449.91667,139.675 C1450.75,140.625005 1451.84999,141.1 1453.21667,141.1 C1454.55001,141.1 1455.63333,140.625005 1456.46667,139.675 C1457.3,138.724995 1457.94166,137.566673 1458.39167,136.2 C1458.84167,134.833326 1459.14167,133.366674 1459.29167,131.8 C1459.44167,130.233325 1459.51667,128.83334 1459.51667,127.6 L1459.51667,127.6 L1459.51667,127.6 Z" id="00-copy" fill="#FFFFFF" opacity="0.4"></path>
            <rect id="Rectangle-1-Copy" fill="#FFFFFF" opacity="0.4" x="1414.5" y="151" width="50" height="5"></rect>
            <text id="13" opacity="0.92" transform="translate(1314.113162, 171.057830) rotate(-6.000000) translate(-1314.113162, -171.057830) " font-family="AvenirNext-Bold, Avenir Next" font-size="175" font-weight="bold" letter-spacing="-44.4230347" fill="#FFFFFF">
                <tspan x="1245.4862" y="226.55783">13</tspan>
            </text>
        </g>
    </g>
</svg>