<?xml version="1.0" encoding="UTF-8" standalone="no"?>
<svg width="300px" height="300px" viewBox="0 0 300 300" version="1.1" xmlns="http://www.w3.org/2000/svg" xmlns:xlink="http://www.w3.org/1999/xlink">
    <!-- Generator: Sketch 3.8.2 (29753) - http://www.bohemiancoding.com/sketch -->
    <title>$3.purple</title>
    <desc>Created with Sketch.</desc>
    <defs>
        <path d="M952.25,288.25 C1027.91301,288.25 1089.25,226.913011 1089.25,151.25 C1089.25,75.5869893 1027.91301,14.25 952.25,14.25 C876.586989,14.25 815.25,75.5869893 815.25,151.25 C815.25,226.913011 876.586989,288.25 952.25,288.25 Z" id="path-1"></path>
        <mask id="mask-2" maskContentUnits="userSpaceOnUse" maskUnits="objectBoundingBox" x="-0.5" y="-0.5" width="275" height="275">
            <rect x="814.75" y="13.75" width="275" height="275" fill="white"></rect>
            <use xlink:href="#path-1" fill="black"></use>
        </mask>
    </defs>
    <g id="Page-1" stroke="none" stroke-width="1" fill="none" fill-rule="evenodd">
        <g id="price-tags" transform="translate(-800.000000, 0.000000)">
            <g id="Oval-1">
                <use fill="#59357D" fill-rule="evenodd" xlink:href="#path-1"></use>
                <use stroke-opacity="0.33" stroke="#000000" mask="url(#mask-2)" stroke-width="1" xlink:href="#path-1"></use>
            </g>
            <path d="M892.45,109.3 C894.283343,109.333334 896.133324,109.641664 898,110.225 C899.866676,110.808336 901.483326,111.683328 902.85,112.85 L898.8,117.05 C898.03333,116.183329 897.075006,115.525002 895.925,115.075 C894.774994,114.624998 893.616673,114.4 892.45,114.4 L892.45,124.5 C893.716673,124.900002 894.983327,125.366664 896.25,125.9 C897.516673,126.433336 898.658328,127.108329 899.675,127.925 C900.691672,128.741671 901.516664,129.733328 902.15,130.9 C902.783337,132.066673 903.1,133.499992 903.1,135.2 C903.1,136.933342 902.808336,138.458327 902.225,139.775 C901.641664,141.091673 900.858338,142.191662 899.875,143.075 C898.891662,143.958338 897.75834,144.633331 896.475,145.1 C895.19166,145.566669 893.850007,145.816666 892.45,145.85 L892.45,149.45 L889.75,149.45 L889.75,145.85 C887.549989,145.783333 885.441677,145.375004 883.425,144.625 C881.408323,143.874996 879.600008,142.733341 878,141.2 L882.4,137 C883.300005,138.066672 884.433327,138.941663 885.8,139.625 C887.166674,140.308337 888.483327,140.666667 889.75,140.7 L889.75,129.6 C888.283326,129.199998 886.916673,128.741669 885.65,128.225 C884.383327,127.708331 883.275005,127.050004 882.325,126.25 C881.374995,125.449996 880.633336,124.491672 880.1,123.375 C879.566664,122.258328 879.3,120.900008 879.3,119.3 C879.3,117.799993 879.591664,116.458339 880.175,115.275 C880.758336,114.091661 881.541662,113.083338 882.525,112.25 C883.508338,111.416663 884.624994,110.758336 885.875,110.275 C887.125006,109.791664 888.41666,109.500001 889.75,109.4 L889.75,106 L892.45,106 L892.45,109.3 Z M889.75,114.4 C888.583327,114.533334 887.550005,114.966663 886.65,115.7 C885.749995,116.433337 885.3,117.533326 885.3,119 C885.3,120.400007 885.724996,121.45833 886.575,122.175 C887.425004,122.89167 888.483327,123.433331 889.75,123.8 L889.75,114.4 Z M892.45,140.7 C893.850007,140.633333 894.974996,140.133338 895.825,139.2 C896.675004,138.266662 897.1,137.050007 897.1,135.55 C897.1,134.083326 896.658338,132.975004 895.775,132.225 C894.891662,131.474996 893.78334,130.866669 892.45,130.4 L892.45,140.7 Z" id="$" fill="#FFFFFF" opacity="0.404092817"></path>
            <path d="M1016,127.6 C1016,130.466681 1015.725,133.049989 1015.175,135.35 C1014.625,137.650012 1013.82501,139.599992 1012.775,141.2 C1011.72499,142.800008 1010.42501,144.033329 1008.875,144.9 C1007.32499,145.766671 1005.55001,146.2 1003.55,146.2 C1001.54999,146.2 999.766675,145.766671 998.2,144.9 C996.633325,144.033329 995.316672,142.800008 994.25,141.2 C993.183328,139.599992 992.375003,137.650012 991.825,135.35 C991.274997,133.049989 991,130.466681 991,127.6 C991,124.733319 991.274997,122.150012 991.825,119.85 C992.375003,117.549989 993.183328,115.600008 994.25,114 C995.316672,112.399992 996.633325,111.166671 998.2,110.3 C999.766675,109.433329 1001.54999,109 1003.55,109 C1005.55001,109 1007.32499,109.433329 1008.875,110.3 C1010.42501,111.166671 1011.72499,112.399992 1012.775,114 C1013.82501,115.600008 1014.625,117.549989 1015.175,119.85 C1015.725,122.150012 1016,124.733319 1016,127.6 L1016,127.6 L1016,127.6 Z M1009.85,127.6 C1009.85,126.366661 1009.775,124.966674 1009.625,123.4 C1009.475,121.833325 1009.175,120.350007 1008.725,118.95 C1008.275,117.549993 1007.63334,116.375005 1006.8,115.425 C1005.96666,114.474995 1004.88334,114 1003.55,114 C1002.18333,114 1001.08334,114.474995 1000.25,115.425 C999.416663,116.375005 998.775002,117.549993 998.325,118.95 C997.874998,120.350007 997.566668,121.833325 997.4,123.4 C997.233333,124.966674 997.15,126.366661 997.15,127.6 C997.15,128.83334 997.233333,130.233325 997.4,131.8 C997.566668,133.366674 997.874998,134.833326 998.325,136.2 C998.775002,137.566673 999.416663,138.724995 1000.25,139.675 C1001.08334,140.625005 1002.18333,141.1 1003.55,141.1 C1004.88334,141.1 1005.96666,140.625005 1006.8,139.675 C1007.63334,138.724995 1008.275,137.566673 1008.725,136.2 C1009.175,134.833326 1009.475,133.366674 1009.625,131.8 C1009.775,130.233325 1009.85,128.83334 1009.85,127.6 L1009.85,127.6 L1009.85,127.6 Z M1043.16667,127.6 C1043.16667,130.466681 1042.89167,133.049989 1042.34167,135.35 C1041.79166,137.650012 1040.99167,139.599992 1039.94167,141.2 C1038.89166,142.800008 1037.59167,144.033329 1036.04167,144.9 C1034.49166,145.766671 1032.71668,146.2 1030.71667,146.2 C1028.71666,146.2 1026.93334,145.766671 1025.36667,144.9 C1023.79999,144.033329 1022.48334,142.800008 1021.41667,141.2 C1020.34999,139.599992 1019.54167,137.650012 1018.99167,135.35 C1018.44166,133.049989 1018.16667,130.466681 1018.16667,127.6 C1018.16667,124.733319 1018.44166,122.150012 1018.99167,119.85 C1019.54167,117.549989 1020.34999,115.600008 1021.41667,114 C1022.48334,112.399992 1023.79999,111.166671 1025.36667,110.3 C1026.93334,109.433329 1028.71666,109 1030.71667,109 C1032.71668,109 1034.49166,109.433329 1036.04167,110.3 C1037.59167,111.166671 1038.89166,112.399992 1039.94167,114 C1040.99167,115.600008 1041.79166,117.549989 1042.34167,119.85 C1042.89167,122.150012 1043.16667,124.733319 1043.16667,127.6 L1043.16667,127.6 L1043.16667,127.6 Z M1037.01667,127.6 C1037.01667,126.366661 1036.94167,124.966674 1036.79167,123.4 C1036.64167,121.833325 1036.34167,120.350007 1035.89167,118.95 C1035.44166,117.549993 1034.8,116.375005 1033.96667,115.425 C1033.13333,114.474995 1032.05001,114 1030.71667,114 C1029.34999,114 1028.25,114.474995 1027.41667,115.425 C1026.58333,116.375005 1025.94167,117.549993 1025.49167,118.95 C1025.04166,120.350007 1024.73333,121.833325 1024.56667,123.4 C1024.4,124.966674 1024.31667,126.366661 1024.31667,127.6 C1024.31667,128.83334 1024.4,130.233325 1024.56667,131.8 C1024.73333,133.366674 1025.04166,134.833326 1025.49167,136.2 C1025.94167,137.566673 1026.58333,138.724995 1027.41667,139.675 C1028.25,140.625005 1029.34999,141.1 1030.71667,141.1 C1032.05001,141.1 1033.13333,140.625005 1033.96667,139.675 C1034.8,138.724995 1035.44166,137.566673 1035.89167,136.2 C1036.34167,134.833326 1036.64167,133.366674 1036.79167,131.8 C1036.94167,130.233325 1037.01667,128.83334 1037.01667,127.6 L1037.01667,127.6 L1037.01667,127.6 Z" id="00" fill="#FFFFFF" opacity="0.4"></path>
            <rect id="Rectangle-1" fill="#FFFFFF" opacity="0.4" x="992" y="151" width="50" height="5"></rect>
            <text id="3" opacity="0.92" transform="translate(931.802157, 168.451598) rotate(-6.000000) translate(-931.802157, -168.451598) " font-family="AvenirNext-Bold, Avenir Next" font-size="175" font-weight="bold" letter-spacing="-44.4230347" fill="#FFFFFF">
                <tspan x="897.488674" y="223.951598">3</tspan>
            </text>
        </g>
    </g>
</svg>