<?xml version="1.0" encoding="UTF-8" standalone="no"?>
<svg width="300px" height="300px" viewBox="0 0 300 300" version="1.1" xmlns="http://www.w3.org/2000/svg" xmlns:xlink="http://www.w3.org/1999/xlink">
    <!-- Generator: Sketch 3.8.2 (29753) - http://www.bohemiancoding.com/sketch -->
    <title>$333.deepblue</title>
    <desc>Created with Sketch.</desc>
    <defs>
        <circle id="path-1" cx="2550" cy="150" r="150"></circle>
        <mask id="mask-2" maskContentUnits="userSpaceOnUse" maskUnits="objectBoundingBox" x="0" y="0" width="300" height="300" fill="white">
            <use xlink:href="#path-1"></use>
        </mask>
    </defs>
    <g id="Page-1" stroke="none" stroke-width="1" fill="none" fill-rule="evenodd">
        <g id="price-tags" transform="translate(-2400.000000, 0.000000)">
            <use id="Oval-1-Copy-6" stroke-opacity="0.33" stroke="#000000" mask="url(#mask-2)" stroke-width="4" fill="#19467B" xlink:href="#path-1"></use>
            <path d="M2431.45,110.3 C2433.28334,110.333334 2435.13332,110.641664 2437,111.225 C2438.86668,111.808336 2440.48333,112.683328 2441.85,113.85 L2437.8,118.05 C2437.03333,117.183329 2436.07501,116.525002 2434.925,116.075 C2433.77499,115.624998 2432.61667,115.4 2431.45,115.4 L2431.45,125.5 C2432.71667,125.900002 2433.98333,126.366664 2435.25,126.9 C2436.51667,127.433336 2437.65833,128.108329 2438.675,128.925 C2439.69167,129.741671 2440.51666,130.733328 2441.15,131.9 C2441.78334,133.066673 2442.1,134.499992 2442.1,136.2 C2442.1,137.933342 2441.80834,139.458327 2441.225,140.775 C2440.64166,142.091673 2439.85834,143.191662 2438.875,144.075 C2437.89166,144.958338 2436.75834,145.633331 2435.475,146.1 C2434.19166,146.566669 2432.85001,146.816666 2431.45,146.85 L2431.45,150.45 L2428.75,150.45 L2428.75,146.85 C2426.54999,146.783333 2424.44168,146.375004 2422.425,145.625 C2420.40832,144.874996 2418.60001,143.733341 2417,142.2 L2421.4,138 C2422.3,139.066672 2423.43333,139.941663 2424.8,140.625 C2426.16667,141.308337 2427.48333,141.666667 2428.75,141.7 L2428.75,130.6 C2427.28333,130.199998 2425.91667,129.741669 2424.65,129.225 C2423.38333,128.708331 2422.275,128.050004 2421.325,127.25 C2420.375,126.449996 2419.63334,125.491672 2419.1,124.375 C2418.56666,123.258328 2418.3,121.900008 2418.3,120.3 C2418.3,118.799993 2418.59166,117.458339 2419.175,116.275 C2419.75834,115.091661 2420.54166,114.083338 2421.525,113.25 C2422.50834,112.416663 2423.62499,111.758336 2424.875,111.275 C2426.12501,110.791664 2427.41666,110.500001 2428.75,110.4 L2428.75,107 L2431.45,107 L2431.45,110.3 Z M2428.75,115.4 C2427.58333,115.533334 2426.55,115.966663 2425.65,116.7 C2424.75,117.433337 2424.3,118.533326 2424.3,120 C2424.3,121.400007 2424.725,122.45833 2425.575,123.175 C2426.425,123.89167 2427.48333,124.433332 2428.75,124.8 L2428.75,115.4 Z M2431.45,141.7 C2432.85001,141.633333 2433.975,141.133338 2434.825,140.2 C2435.675,139.266662 2436.1,138.050008 2436.1,136.55 C2436.1,135.083326 2435.65834,133.975004 2434.775,133.225 C2433.89166,132.474996 2432.78334,131.866669 2431.45,131.4 L2431.45,141.7 Z" id="$-copy-4" fill="#FFFFFF" opacity="0.404092817"></path>
            <path d="M2658,128.6 C2658,131.466681 2657.725,134.049989 2657.175,136.35 C2656.625,138.650012 2655.82501,140.599992 2654.775,142.2 C2653.72499,143.800008 2652.42501,145.033329 2650.875,145.9 C2649.32499,146.766671 2647.55001,147.2 2645.55,147.2 C2643.54999,147.2 2641.76667,146.766671 2640.2,145.9 C2638.63333,145.033329 2637.31667,143.800008 2636.25,142.2 C2635.18333,140.599992 2634.375,138.650012 2633.825,136.35 C2633.275,134.049989 2633,131.466681 2633,128.6 C2633,125.733319 2633.275,123.150012 2633.825,120.85 C2634.375,118.549989 2635.18333,116.600008 2636.25,115 C2637.31667,113.399992 2638.63333,112.166671 2640.2,111.3 C2641.76667,110.433329 2643.54999,110 2645.55,110 C2647.55001,110 2649.32499,110.433329 2650.875,111.3 C2652.42501,112.166671 2653.72499,113.399992 2654.775,115 C2655.82501,116.600008 2656.625,118.549989 2657.175,120.85 C2657.725,123.150012 2658,125.733319 2658,128.6 L2658,128.6 L2658,128.6 Z M2651.85,128.6 C2651.85,127.366661 2651.775,125.966674 2651.625,124.4 C2651.475,122.833325 2651.175,121.350007 2650.725,119.95 C2650.275,118.549993 2649.63334,117.375005 2648.8,116.425 C2647.96666,115.474995 2646.88334,115 2645.55,115 C2644.18333,115 2643.08334,115.474995 2642.25,116.425 C2641.41666,117.375005 2640.775,118.549993 2640.325,119.95 C2639.875,121.350007 2639.56667,122.833325 2639.4,124.4 C2639.23333,125.966674 2639.15,127.366661 2639.15,128.6 C2639.15,129.83334 2639.23333,131.233325 2639.4,132.8 C2639.56667,134.366674 2639.875,135.833326 2640.325,137.2 C2640.775,138.566673 2641.41666,139.724995 2642.25,140.675 C2643.08334,141.625005 2644.18333,142.1 2645.55,142.1 C2646.88334,142.1 2647.96666,141.625005 2648.8,140.675 C2649.63334,139.724995 2650.275,138.566673 2650.725,137.2 C2651.175,135.833326 2651.475,134.366674 2651.625,132.8 C2651.775,131.233325 2651.85,129.83334 2651.85,128.6 L2651.85,128.6 L2651.85,128.6 Z M2685.16667,128.6 C2685.16667,131.466681 2684.89167,134.049989 2684.34167,136.35 C2683.79166,138.650012 2682.99167,140.599992 2681.94167,142.2 C2680.89166,143.800008 2679.59167,145.033329 2678.04167,145.9 C2676.49166,146.766671 2674.71668,147.2 2672.71667,147.2 C2670.71666,147.2 2668.93334,146.766671 2667.36667,145.9 C2665.79999,145.033329 2664.48334,143.800008 2663.41667,142.2 C2662.34999,140.599992 2661.54167,138.650012 2660.99167,136.35 C2660.44166,134.049989 2660.16667,131.466681 2660.16667,128.6 C2660.16667,125.733319 2660.44166,123.150012 2660.99167,120.85 C2661.54167,118.549989 2662.34999,116.600008 2663.41667,115 C2664.48334,113.399992 2665.79999,112.166671 2667.36667,111.3 C2668.93334,110.433329 2670.71666,110 2672.71667,110 C2674.71668,110 2676.49166,110.433329 2678.04167,111.3 C2679.59167,112.166671 2680.89166,113.399992 2681.94167,115 C2682.99167,116.600008 2683.79166,118.549989 2684.34167,120.85 C2684.89167,123.150012 2685.16667,125.733319 2685.16667,128.6 L2685.16667,128.6 L2685.16667,128.6 Z M2679.01667,128.6 C2679.01667,127.366661 2678.94167,125.966674 2678.79167,124.4 C2678.64167,122.833325 2678.34167,121.350007 2677.89167,119.95 C2677.44166,118.549993 2676.8,117.375005 2675.96667,116.425 C2675.13333,115.474995 2674.05001,115 2672.71667,115 C2671.34999,115 2670.25,115.474995 2669.41667,116.425 C2668.58333,117.375005 2667.94167,118.549993 2667.49167,119.95 C2667.04166,121.350007 2666.73333,122.833325 2666.56667,124.4 C2666.4,125.966674 2666.31667,127.366661 2666.31667,128.6 C2666.31667,129.83334 2666.4,131.233325 2666.56667,132.8 C2666.73333,134.366674 2667.04166,135.833326 2667.49167,137.2 C2667.94167,138.566673 2668.58333,139.724995 2669.41667,140.675 C2670.25,141.625005 2671.34999,142.1 2672.71667,142.1 C2674.05001,142.1 2675.13333,141.625005 2675.96667,140.675 C2676.8,139.724995 2677.44166,138.566673 2677.89167,137.2 C2678.34167,135.833326 2678.64167,134.366674 2678.79167,132.8 C2678.94167,131.233325 2679.01667,129.83334 2679.01667,128.6 L2679.01667,128.6 L2679.01667,128.6 Z" id="00-copy-3" fill="#FFFFFF" opacity="0.4"></path>
            <rect id="Rectangle-1-Copy-3" fill="#FFFFFF" opacity="0.4" x="2634" y="152" width="50" height="5"></rect>
            <text id="333" opacity="0.92" transform="translate(2544.581446, 161.511532) rotate(-6.000000) translate(-2544.581446, -161.511532) " font-family="AvenirNext-Bold, Avenir Next" font-size="145" font-weight="bold" letter-spacing="-25" fill="#FFFFFF">
                <tspan x="2429.07645" y="207.511532">33</tspan>
                <tspan x="2566.41645" y="207.511532">3</tspan>
            </text>
        </g>
    </g>
</svg>