<?xml version="1.0" encoding="UTF-8" standalone="no"?>
<svg width="3457px" height="300px" viewBox="0 0 3457 300" version="1.1" xmlns="http://www.w3.org/2000/svg" xmlns:xlink="http://www.w3.org/1999/xlink">
    <!-- Generator: Sketch 3.8.2 (29753) - http://www.bohemiancoding.com/sketch -->
    <title>price tags</title>
    <desc>Created with Sketch.</desc>
    <defs>
        <path d="M1350.5,290 C1426.43915,290 1488,228.439153 1488,152.5 C1488,76.5608469 1426.43915,15 1350.5,15 C1274.56085,15 1213,76.5608469 1213,152.5 C1213,228.439153 1274.56085,290 1350.5,290 Z" id="path-1"></path>
        <mask id="mask-2" maskContentUnits="userSpaceOnUse" maskUnits="objectBoundingBox" x="0" y="0" width="275" height="275" fill="white">
            <use xlink:href="#path-1"></use>
        </mask>
        <circle id="path-3" cx="150" cy="150" r="150"></circle>
        <mask id="mask-4" maskContentUnits="userSpaceOnUse" maskUnits="objectBoundingBox" x="0" y="0" width="300" height="300" fill="white">
            <use xlink:href="#path-3"></use>
        </mask>
        <circle id="path-5" cx="2150" cy="152" r="137.5"></circle>
        <mask id="mask-6" maskContentUnits="userSpaceOnUse" maskUnits="objectBoundingBox" x="0" y="0" width="275" height="275" fill="white">
            <use xlink:href="#path-5"></use>
        </mask>
        <circle id="path-7" cx="2550" cy="150" r="150"></circle>
        <mask id="mask-8" maskContentUnits="userSpaceOnUse" maskUnits="objectBoundingBox" x="0" y="0" width="300" height="300" fill="white">
            <use xlink:href="#path-7"></use>
        </mask>
        <circle id="path-9" cx="1750.5" cy="152.5" r="137.5"></circle>
        <mask id="mask-10" maskContentUnits="userSpaceOnUse" maskUnits="objectBoundingBox" x="0" y="0" width="275" height="275" fill="white">
            <use xlink:href="#path-9"></use>
        </mask>
        <circle id="path-11" cx="550.5" cy="150.5" r="137.5"></circle>
        <mask id="mask-12" maskContentUnits="userSpaceOnUse" maskUnits="objectBoundingBox" x="-0.5" y="-0.5" width="276" height="276">
            <rect x="412.5" y="12.5" width="276" height="276" fill="white"></rect>
            <use xlink:href="#path-11" fill="black"></use>
        </mask>
        <path d="M952.25,288.25 C1027.91301,288.25 1089.25,226.913011 1089.25,151.25 C1089.25,75.5869893 1027.91301,14.25 952.25,14.25 C876.586989,14.25 815.25,75.5869893 815.25,151.25 C815.25,226.913011 876.586989,288.25 952.25,288.25 Z" id="path-13"></path>
        <mask id="mask-14" maskContentUnits="userSpaceOnUse" maskUnits="objectBoundingBox" x="-0.5" y="-0.5" width="275" height="275">
            <rect x="814.75" y="13.75" width="275" height="275" fill="white"></rect>
            <use xlink:href="#path-13" fill="black"></use>
        </mask>
    </defs>
    <g id="Page-1" stroke="none" stroke-width="1" fill="none" fill-rule="evenodd">
        <g id="price-tags">
            <use id="Oval-1-Copy-2" stroke-opacity="0.33" stroke="#000000" mask="url(#mask-2)" stroke-width="4" fill="#2C6886" xlink:href="#path-1"></use>
            <use id="Oval-1-Copy-3" stroke-opacity="0.33" stroke="#000000" mask="url(#mask-4)" stroke-width="4" fill="#000000" xlink:href="#path-3"></use>
            <use id="Oval-1-Copy-5" stroke-opacity="0.33" stroke="#000000" mask="url(#mask-6)" stroke-width="4" fill="#8A2830" xlink:href="#path-5"></use>
            <use id="Oval-1-Copy-6" stroke-opacity="0.33" stroke="#000000" mask="url(#mask-8)" stroke-width="4" fill="#19467B" xlink:href="#path-7"></use>
            <use id="Oval-1-Copy-4" stroke-opacity="0.33" stroke="#000000" mask="url(#mask-10)" stroke-width="4" fill="#C26F0A" xlink:href="#path-9"></use>
            <g id="Oval-1">
                <use fill="#217032" fill-rule="evenodd" xlink:href="#path-11"></use>
                <use stroke-opacity="0.33" stroke="#000000" mask="url(#mask-12)" stroke-width="1" xlink:href="#path-11"></use>
            </g>
            <path d="M451.45,110.3 C453.283343,110.333334 455.133324,110.641664 457,111.225 C458.866676,111.808336 460.483326,112.683328 461.85,113.85 L457.8,118.05 C457.03333,117.183329 456.075006,116.525002 454.925,116.075 C453.774994,115.624998 452.616672,115.4 451.45,115.4 L451.45,125.5 C452.716673,125.900002 453.983327,126.366664 455.25,126.9 C456.516673,127.433336 457.658328,128.108329 458.675,128.925 C459.691672,129.741671 460.516663,130.733328 461.15,131.9 C461.783337,133.066673 462.1,134.499992 462.1,136.2 C462.1,137.933342 461.808336,139.458327 461.225,140.775 C460.641664,142.091673 459.858338,143.191662 458.875,144.075 C457.891662,144.958338 456.75834,145.633331 455.475,146.1 C454.19166,146.566669 452.850007,146.816666 451.45,146.85 L451.45,150.45 L448.75,150.45 L448.75,146.85 C446.549989,146.783333 444.441677,146.375004 442.425,145.625 C440.408323,144.874996 438.600008,143.733341 437,142.2 L441.4,138 C442.300005,139.066672 443.433327,139.941663 444.8,140.625 C446.166674,141.308337 447.483327,141.666667 448.75,141.7 L448.75,130.6 C447.283326,130.199998 445.916673,129.741669 444.65,129.225 C443.383327,128.708331 442.275005,128.050004 441.325,127.25 C440.374995,126.449996 439.633336,125.491672 439.1,124.375 C438.566664,123.258328 438.3,121.900008 438.3,120.3 C438.3,118.799993 438.591664,117.458339 439.175,116.275 C439.758336,115.091661 440.541662,114.083338 441.525,113.25 C442.508338,112.416663 443.624994,111.758336 444.875,111.275 C446.125006,110.791664 447.41666,110.500001 448.75,110.4 L448.75,107 L451.45,107 L451.45,110.3 Z M448.75,115.4 C447.583327,115.533334 446.550005,115.966663 445.65,116.7 C444.749996,117.433337 444.3,118.533326 444.3,120 C444.3,121.400007 444.724996,122.45833 445.575,123.175 C446.425004,123.89167 447.483327,124.433332 448.75,124.8 L448.75,115.4 Z M451.45,141.7 C452.850007,141.633333 453.974996,141.133338 454.825,140.2 C455.675004,139.266662 456.1,138.050008 456.1,136.55 C456.1,135.083326 455.658338,133.975004 454.775,133.225 C453.891662,132.474996 452.78334,131.866669 451.45,131.4 L451.45,141.7 Z" id="$" fill="#FFFFFF" opacity="0.404092817"></path>
            <path d="M2451.45,110.3 C2453.28334,110.333334 2455.13332,110.641664 2457,111.225 C2458.86668,111.808336 2460.48333,112.683328 2461.85,113.85 L2457.8,118.05 C2457.03333,117.183329 2456.07501,116.525002 2454.925,116.075 C2453.77499,115.624998 2452.61667,115.4 2451.45,115.4 L2451.45,125.5 C2452.71667,125.900002 2453.98333,126.366664 2455.25,126.9 C2456.51667,127.433336 2457.65833,128.108329 2458.675,128.925 C2459.69167,129.741671 2460.51666,130.733328 2461.15,131.9 C2461.78334,133.066673 2462.1,134.499992 2462.1,136.2 C2462.1,137.933342 2461.80834,139.458327 2461.225,140.775 C2460.64166,142.091673 2459.85834,143.191662 2458.875,144.075 C2457.89166,144.958338 2456.75834,145.633331 2455.475,146.1 C2454.19166,146.566669 2452.85001,146.816666 2451.45,146.85 L2451.45,150.45 L2448.75,150.45 L2448.75,146.85 C2446.54999,146.783333 2444.44168,146.375004 2442.425,145.625 C2440.40832,144.874996 2438.60001,143.733341 2437,142.2 L2441.4,138 C2442.3,139.066672 2443.43333,139.941663 2444.8,140.625 C2446.16667,141.308337 2447.48333,141.666667 2448.75,141.7 L2448.75,130.6 C2447.28333,130.199998 2445.91667,129.741669 2444.65,129.225 C2443.38333,128.708331 2442.275,128.050004 2441.325,127.25 C2440.375,126.449996 2439.63334,125.491672 2439.1,124.375 C2438.56666,123.258328 2438.3,121.900008 2438.3,120.3 C2438.3,118.799993 2438.59166,117.458339 2439.175,116.275 C2439.75834,115.091661 2440.54166,114.083338 2441.525,113.25 C2442.50834,112.416663 2443.62499,111.758336 2444.875,111.275 C2446.12501,110.791664 2447.41666,110.500001 2448.75,110.4 L2448.75,107 L2451.45,107 L2451.45,110.3 Z M2448.75,115.4 C2447.58333,115.533334 2446.55,115.966663 2445.65,116.7 C2444.75,117.433337 2444.3,118.533326 2444.3,120 C2444.3,121.400007 2444.725,122.45833 2445.575,123.175 C2446.425,123.89167 2447.48333,124.433332 2448.75,124.8 L2448.75,115.4 Z M2451.45,141.7 C2452.85001,141.633333 2453.975,141.133338 2454.825,140.2 C2455.675,139.266662 2456.1,138.050008 2456.1,136.55 C2456.1,135.083326 2455.65834,133.975004 2454.775,133.225 C2453.89166,132.474996 2452.78334,131.866669 2451.45,131.4 L2451.45,141.7 Z" id="$-copy-4" fill="#FFFFFF" opacity="0.404092817"></path>
            <path d="M649,128.6 C649,131.466681 648.725003,134.049989 648.175,136.35 C647.624997,138.650012 646.825005,140.599992 645.775,142.2 C644.724995,143.800008 643.425008,145.033329 641.875,145.9 C640.324992,146.766671 638.55001,147.2 636.55,147.2 C634.54999,147.2 632.766675,146.766671 631.2,145.9 C629.633326,145.033329 628.316672,143.800008 627.25,142.2 C626.183328,140.599992 625.375003,138.650012 624.825,136.35 C624.274997,134.049989 624,131.466681 624,128.6 C624,125.733319 624.274997,123.150012 624.825,120.85 C625.375003,118.549989 626.183328,116.600008 627.25,115 C628.316672,113.399992 629.633326,112.166671 631.2,111.3 C632.766675,110.433329 634.54999,110 636.55,110 C638.55001,110 640.324992,110.433329 641.875,111.3 C643.425008,112.166671 644.724995,113.399992 645.775,115 C646.825005,116.600008 647.624997,118.549989 648.175,120.85 C648.725003,123.150012 649,125.733319 649,128.6 L649,128.6 L649,128.6 Z M642.85,128.6 C642.85,127.366661 642.775001,125.966674 642.625,124.4 C642.474999,122.833325 642.175002,121.350007 641.725,119.95 C641.274998,118.549993 640.633338,117.375005 639.8,116.425 C638.966663,115.474995 637.88334,115 636.55,115 C635.183327,115 634.083338,115.474995 633.25,116.425 C632.416663,117.375005 631.775002,118.549993 631.325,119.95 C630.874998,121.350007 630.566668,122.833325 630.4,124.4 C630.233333,125.966674 630.15,127.366661 630.15,128.6 C630.15,129.83334 630.233333,131.233325 630.4,132.8 C630.566668,134.366674 630.874998,135.833326 631.325,137.2 C631.775002,138.566673 632.416663,139.724995 633.25,140.675 C634.083338,141.625005 635.183327,142.1 636.55,142.1 C637.88334,142.1 638.966663,141.625005 639.8,140.675 C640.633338,139.724995 641.274998,138.566673 641.725,137.2 C642.175002,135.833326 642.474999,134.366674 642.625,132.8 C642.775001,131.233325 642.85,129.83334 642.85,128.6 L642.85,128.6 L642.85,128.6 Z M676.166666,128.6 C676.166666,131.466681 675.891669,134.049989 675.341666,136.35 C674.791663,138.650012 673.991671,140.599992 672.941666,142.2 C671.891661,143.800008 670.591674,145.033329 669.041666,145.9 C667.491658,146.766671 665.716676,147.2 663.716666,147.2 C661.716656,147.2 659.933341,146.766671 658.366666,145.9 C656.799992,145.033329 655.483338,143.800008 654.416666,142.2 C653.349994,140.599992 652.541669,138.650012 651.991666,136.35 C651.441663,134.049989 651.166666,131.466681 651.166666,128.6 C651.166666,125.733319 651.441663,123.150012 651.991666,120.85 C652.541669,118.549989 653.349994,116.600008 654.416666,115 C655.483338,113.399992 656.799992,112.166671 658.366666,111.3 C659.933341,110.433329 661.716656,110 663.716666,110 C665.716676,110 667.491658,110.433329 669.041666,111.3 C670.591674,112.166671 671.891661,113.399992 672.941666,115 C673.991671,116.600008 674.791663,118.549989 675.341666,120.85 C675.891669,123.150012 676.166666,125.733319 676.166666,128.6 L676.166666,128.6 L676.166666,128.6 Z M670.016666,128.6 C670.016666,127.366661 669.941667,125.966674 669.791666,124.4 C669.641665,122.833325 669.341668,121.350007 668.891666,119.95 C668.441664,118.549993 667.800004,117.375005 666.966666,116.425 C666.133329,115.474995 665.050006,115 663.716666,115 C662.349993,115 661.250004,115.474995 660.416666,116.425 C659.583329,117.375005 658.941668,118.549993 658.491666,119.95 C658.041664,121.350007 657.733334,122.833325 657.566666,124.4 C657.399999,125.966674 657.316666,127.366661 657.316666,128.6 C657.316666,129.83334 657.399999,131.233325 657.566666,132.8 C657.733334,134.366674 658.041664,135.833326 658.491666,137.2 C658.941668,138.566673 659.583329,139.724995 660.416666,140.675 C661.250004,141.625005 662.349993,142.1 663.716666,142.1 C665.050006,142.1 666.133329,141.625005 666.966666,140.675 C667.800004,139.724995 668.441664,138.566673 668.891666,137.2 C669.341668,135.833326 669.641665,134.366674 669.791666,132.8 C669.941667,131.233325 670.016666,129.83334 670.016666,128.6 L670.016666,128.6 L670.016666,128.6 Z" id="00" fill="#FFFFFF" opacity="0.4"></path>
            <path d="M2649,128.6 C2649,131.466681 2648.725,134.049989 2648.175,136.35 C2647.625,138.650012 2646.82501,140.599992 2645.775,142.2 C2644.72499,143.800008 2643.42501,145.033329 2641.875,145.9 C2640.32499,146.766671 2638.55001,147.2 2636.55,147.2 C2634.54999,147.2 2632.76667,146.766671 2631.2,145.9 C2629.63333,145.033329 2628.31667,143.800008 2627.25,142.2 C2626.18333,140.599992 2625.375,138.650012 2624.825,136.35 C2624.275,134.049989 2624,131.466681 2624,128.6 C2624,125.733319 2624.275,123.150012 2624.825,120.85 C2625.375,118.549989 2626.18333,116.600008 2627.25,115 C2628.31667,113.399992 2629.63333,112.166671 2631.2,111.3 C2632.76667,110.433329 2634.54999,110 2636.55,110 C2638.55001,110 2640.32499,110.433329 2641.875,111.3 C2643.42501,112.166671 2644.72499,113.399992 2645.775,115 C2646.82501,116.600008 2647.625,118.549989 2648.175,120.85 C2648.725,123.150012 2649,125.733319 2649,128.6 L2649,128.6 L2649,128.6 Z M2642.85,128.6 C2642.85,127.366661 2642.775,125.966674 2642.625,124.4 C2642.475,122.833325 2642.175,121.350007 2641.725,119.95 C2641.275,118.549993 2640.63334,117.375005 2639.8,116.425 C2638.96666,115.474995 2637.88334,115 2636.55,115 C2635.18333,115 2634.08334,115.474995 2633.25,116.425 C2632.41666,117.375005 2631.775,118.549993 2631.325,119.95 C2630.875,121.350007 2630.56667,122.833325 2630.4,124.4 C2630.23333,125.966674 2630.15,127.366661 2630.15,128.6 C2630.15,129.83334 2630.23333,131.233325 2630.4,132.8 C2630.56667,134.366674 2630.875,135.833326 2631.325,137.2 C2631.775,138.566673 2632.41666,139.724995 2633.25,140.675 C2634.08334,141.625005 2635.18333,142.1 2636.55,142.1 C2637.88334,142.1 2638.96666,141.625005 2639.8,140.675 C2640.63334,139.724995 2641.275,138.566673 2641.725,137.2 C2642.175,135.833326 2642.475,134.366674 2642.625,132.8 C2642.775,131.233325 2642.85,129.83334 2642.85,128.6 L2642.85,128.6 L2642.85,128.6 Z M2676.16667,128.6 C2676.16667,131.466681 2675.89167,134.049989 2675.34167,136.35 C2674.79166,138.650012 2673.99167,140.599992 2672.94167,142.2 C2671.89166,143.800008 2670.59167,145.033329 2669.04167,145.9 C2667.49166,146.766671 2665.71668,147.2 2663.71667,147.2 C2661.71666,147.2 2659.93334,146.766671 2658.36667,145.9 C2656.79999,145.033329 2655.48334,143.800008 2654.41667,142.2 C2653.34999,140.599992 2652.54167,138.650012 2651.99167,136.35 C2651.44166,134.049989 2651.16667,131.466681 2651.16667,128.6 C2651.16667,125.733319 2651.44166,123.150012 2651.99167,120.85 C2652.54167,118.549989 2653.34999,116.600008 2654.41667,115 C2655.48334,113.399992 2656.79999,112.166671 2658.36667,111.3 C2659.93334,110.433329 2661.71666,110 2663.71667,110 C2665.71668,110 2667.49166,110.433329 2669.04167,111.3 C2670.59167,112.166671 2671.89166,113.399992 2672.94167,115 C2673.99167,116.600008 2674.79166,118.549989 2675.34167,120.85 C2675.89167,123.150012 2676.16667,125.733319 2676.16667,128.6 L2676.16667,128.6 L2676.16667,128.6 Z M2670.01667,128.6 C2670.01667,127.366661 2669.94167,125.966674 2669.79167,124.4 C2669.64167,122.833325 2669.34167,121.350007 2668.89167,119.95 C2668.44166,118.549993 2667.8,117.375005 2666.96667,116.425 C2666.13333,115.474995 2665.05001,115 2663.71667,115 C2662.34999,115 2661.25,115.474995 2660.41667,116.425 C2659.58333,117.375005 2658.94167,118.549993 2658.49167,119.95 C2658.04166,121.350007 2657.73333,122.833325 2657.56667,124.4 C2657.4,125.966674 2657.31667,127.366661 2657.31667,128.6 C2657.31667,129.83334 2657.4,131.233325 2657.56667,132.8 C2657.73333,134.366674 2658.04166,135.833326 2658.49167,137.2 C2658.94167,138.566673 2659.58333,139.724995 2660.41667,140.675 C2661.25,141.625005 2662.34999,142.1 2663.71667,142.1 C2665.05001,142.1 2666.13333,141.625005 2666.96667,140.675 C2667.8,139.724995 2668.44166,138.566673 2668.89167,137.2 C2669.34167,135.833326 2669.64167,134.366674 2669.79167,132.8 C2669.94167,131.233325 2670.01667,129.83334 2670.01667,128.6 L2670.01667,128.6 L2670.01667,128.6 Z" id="00-copy-3" fill="#FFFFFF" opacity="0.4"></path>
            <rect id="Rectangle-1" fill="#FFFFFF" opacity="0.4" x="625" y="152" width="50" height="5"></rect>
            <rect id="Rectangle-1-Copy-3" fill="#FFFFFF" opacity="0.4" x="2625" y="152" width="50" height="5"></rect>
            <text id="111" opacity="0.92" transform="translate(527.729355, 166.189263) rotate(-6.000000) translate(-527.729355, -166.189263) " font-family="AvenirNext-Bold, Avenir Next" font-size="150" font-weight="bold" letter-spacing="-38.0769043" fill="#FFFFFF">
                <tspan x="439.494712" y="213.689263">111</tspan>
            </text>
            <text id="333" opacity="0.92" transform="translate(2527.729355, 166.189263) rotate(-6.000000) translate(-2527.729355, -166.189263) " font-family="AvenirNext-Bold, Avenir Next" font-size="150" font-weight="bold" letter-spacing="-38.0769043" fill="#FFFFFF">
                <tspan x="2439.49471" y="213.689263">333</tspan>
            </text>
            <g id="Oval-1">
                <use fill="#59357D" fill-rule="evenodd" xlink:href="#path-13"></use>
                <use stroke-opacity="0.33" stroke="#000000" mask="url(#mask-14)" stroke-width="1" xlink:href="#path-13"></use>
            </g>
            <path d="M892.45,109.3 C894.283343,109.333334 896.133324,109.641664 898,110.225 C899.866676,110.808336 901.483326,111.683328 902.85,112.85 L898.8,117.05 C898.03333,116.183329 897.075006,115.525002 895.925,115.075 C894.774994,114.624998 893.616673,114.4 892.45,114.4 L892.45,124.5 C893.716673,124.900002 894.983327,125.366664 896.25,125.9 C897.516673,126.433336 898.658328,127.108329 899.675,127.925 C900.691672,128.741671 901.516664,129.733328 902.15,130.9 C902.783337,132.066673 903.1,133.499992 903.1,135.2 C903.1,136.933342 902.808336,138.458327 902.225,139.775 C901.641664,141.091673 900.858338,142.191662 899.875,143.075 C898.891662,143.958338 897.75834,144.633331 896.475,145.1 C895.19166,145.566669 893.850007,145.816666 892.45,145.85 L892.45,149.45 L889.75,149.45 L889.75,145.85 C887.549989,145.783333 885.441677,145.375004 883.425,144.625 C881.408323,143.874996 879.600008,142.733341 878,141.2 L882.4,137 C883.300005,138.066672 884.433327,138.941663 885.8,139.625 C887.166674,140.308337 888.483327,140.666667 889.75,140.7 L889.75,129.6 C888.283326,129.199998 886.916673,128.741669 885.65,128.225 C884.383327,127.708331 883.275005,127.050004 882.325,126.25 C881.374995,125.449996 880.633336,124.491672 880.1,123.375 C879.566664,122.258328 879.3,120.900008 879.3,119.3 C879.3,117.799993 879.591664,116.458339 880.175,115.275 C880.758336,114.091661 881.541662,113.083338 882.525,112.25 C883.508338,111.416663 884.624994,110.758336 885.875,110.275 C887.125006,109.791664 888.41666,109.500001 889.75,109.4 L889.75,106 L892.45,106 L892.45,109.3 Z M889.75,114.4 C888.583327,114.533334 887.550005,114.966663 886.65,115.7 C885.749995,116.433337 885.3,117.533326 885.3,119 C885.3,120.400007 885.724996,121.45833 886.575,122.175 C887.425004,122.89167 888.483327,123.433331 889.75,123.8 L889.75,114.4 Z M892.45,140.7 C893.850007,140.633333 894.974996,140.133338 895.825,139.2 C896.675004,138.266662 897.1,137.050007 897.1,135.55 C897.1,134.083326 896.658338,132.975004 895.775,132.225 C894.891662,131.474996 893.78334,130.866669 892.45,130.4 L892.45,140.7 Z" id="$" fill="#FFFFFF" opacity="0.404092817"></path>
            <path d="M1249.45,109.3 C1251.28334,109.333334 1253.13332,109.641664 1255,110.225 C1256.86668,110.808336 1258.48333,111.683328 1259.85,112.85 L1255.8,117.05 C1255.03333,116.183329 1254.07501,115.525002 1252.925,115.075 C1251.77499,114.624998 1250.61667,114.4 1249.45,114.4 L1249.45,124.5 C1250.71667,124.900002 1251.98333,125.366664 1253.25,125.9 C1254.51667,126.433336 1255.65833,127.108329 1256.675,127.925 C1257.69167,128.741671 1258.51666,129.733328 1259.15,130.9 C1259.78334,132.066673 1260.1,133.499992 1260.1,135.2 C1260.1,136.933342 1259.80834,138.458327 1259.225,139.775 C1258.64166,141.091673 1257.85834,142.191662 1256.875,143.075 C1255.89166,143.958338 1254.75834,144.633331 1253.475,145.1 C1252.19166,145.566669 1250.85001,145.816666 1249.45,145.85 L1249.45,149.45 L1246.75,149.45 L1246.75,145.85 C1244.54999,145.783333 1242.44168,145.375004 1240.425,144.625 C1238.40832,143.874996 1236.60001,142.733341 1235,141.2 L1239.4,137 C1240.3,138.066672 1241.43333,138.941663 1242.8,139.625 C1244.16667,140.308337 1245.48333,140.666667 1246.75,140.7 L1246.75,129.6 C1245.28333,129.199998 1243.91667,128.741669 1242.65,128.225 C1241.38333,127.708331 1240.275,127.050004 1239.325,126.25 C1238.375,125.449996 1237.63334,124.491672 1237.1,123.375 C1236.56666,122.258328 1236.3,120.900008 1236.3,119.3 C1236.3,117.799993 1236.59166,116.458339 1237.175,115.275 C1237.75834,114.091661 1238.54166,113.083338 1239.525,112.25 C1240.50834,111.416663 1241.62499,110.758336 1242.875,110.275 C1244.12501,109.791664 1245.41666,109.500001 1246.75,109.4 L1246.75,106 L1249.45,106 L1249.45,109.3 Z M1246.75,114.4 C1245.58333,114.533334 1244.55,114.966663 1243.65,115.7 C1242.75,116.433337 1242.3,117.533326 1242.3,119 C1242.3,120.400007 1242.725,121.45833 1243.575,122.175 C1244.425,122.89167 1245.48333,123.433331 1246.75,123.8 L1246.75,114.4 Z M1249.45,140.7 C1250.85001,140.633333 1251.975,140.133338 1252.825,139.2 C1253.675,138.266662 1254.1,137.050007 1254.1,135.55 C1254.1,134.083326 1253.65834,132.975004 1252.775,132.225 C1251.89166,131.474996 1250.78334,130.866669 1249.45,130.4 L1249.45,140.7 Z" id="$-copy-2" fill="#FFFFFF" opacity="0.404092817"></path>
            <path d="M1649.45,109.3 C1651.28334,109.333334 1653.13332,109.641664 1655,110.225 C1656.86668,110.808336 1658.48333,111.683328 1659.85,112.85 L1655.8,117.05 C1655.03333,116.183329 1654.07501,115.525002 1652.925,115.075 C1651.77499,114.624998 1650.61667,114.4 1649.45,114.4 L1649.45,124.5 C1650.71667,124.900002 1651.98333,125.366664 1653.25,125.9 C1654.51667,126.433336 1655.65833,127.108329 1656.675,127.925 C1657.69167,128.741671 1658.51666,129.733328 1659.15,130.9 C1659.78334,132.066673 1660.1,133.499992 1660.1,135.2 C1660.1,136.933342 1659.80834,138.458327 1659.225,139.775 C1658.64166,141.091673 1657.85834,142.191662 1656.875,143.075 C1655.89166,143.958338 1654.75834,144.633331 1653.475,145.1 C1652.19166,145.566669 1650.85001,145.816666 1649.45,145.85 L1649.45,149.45 L1646.75,149.45 L1646.75,145.85 C1644.54999,145.783333 1642.44168,145.375004 1640.425,144.625 C1638.40832,143.874996 1636.60001,142.733341 1635,141.2 L1639.4,137 C1640.3,138.066672 1641.43333,138.941663 1642.8,139.625 C1644.16667,140.308337 1645.48333,140.666667 1646.75,140.7 L1646.75,129.6 C1645.28333,129.199998 1643.91667,128.741669 1642.65,128.225 C1641.38333,127.708331 1640.275,127.050004 1639.325,126.25 C1638.375,125.449996 1637.63334,124.491672 1637.1,123.375 C1636.56666,122.258328 1636.3,120.900008 1636.3,119.3 C1636.3,117.799993 1636.59166,116.458339 1637.175,115.275 C1637.75834,114.091661 1638.54166,113.083338 1639.525,112.25 C1640.50834,111.416663 1641.62499,110.758336 1642.875,110.275 C1644.12501,109.791664 1645.41666,109.500001 1646.75,109.4 L1646.75,106 L1649.45,106 L1649.45,109.3 Z M1646.75,114.4 C1645.58333,114.533334 1644.55,114.966663 1643.65,115.7 C1642.75,116.433337 1642.3,117.533326 1642.3,119 C1642.3,120.400007 1642.725,121.45833 1643.575,122.175 C1644.425,122.89167 1645.48333,123.433331 1646.75,123.8 L1646.75,114.4 Z M1649.45,140.7 C1650.85001,140.633333 1651.975,140.133338 1652.825,139.2 C1653.675,138.266662 1654.1,137.050007 1654.1,135.55 C1654.1,134.083326 1653.65834,132.975004 1652.775,132.225 C1651.89166,131.474996 1650.78334,130.866669 1649.45,130.4 L1649.45,140.7 Z" id="$-copy-3" fill="#FFFFFF" opacity="0.404092817"></path>
            <path d="M2101.45,109.3 C2103.28334,109.333334 2105.13332,109.641664 2107,110.225 C2108.86668,110.808336 2110.48333,111.683328 2111.85,112.85 L2107.8,117.05 C2107.03333,116.183329 2106.07501,115.525002 2104.925,115.075 C2103.77499,114.624998 2102.61667,114.4 2101.45,114.4 L2101.45,124.5 C2102.71667,124.900002 2103.98333,125.366664 2105.25,125.9 C2106.51667,126.433336 2107.65833,127.108329 2108.675,127.925 C2109.69167,128.741671 2110.51666,129.733328 2111.15,130.9 C2111.78334,132.066673 2112.1,133.499992 2112.1,135.2 C2112.1,136.933342 2111.80834,138.458327 2111.225,139.775 C2110.64166,141.091673 2109.85834,142.191662 2108.875,143.075 C2107.89166,143.958338 2106.75834,144.633331 2105.475,145.1 C2104.19166,145.566669 2102.85001,145.816666 2101.45,145.85 L2101.45,149.45 L2098.75,149.45 L2098.75,145.85 C2096.54999,145.783333 2094.44168,145.375004 2092.425,144.625 C2090.40832,143.874996 2088.60001,142.733341 2087,141.2 L2091.4,137 C2092.3,138.066672 2093.43333,138.941663 2094.8,139.625 C2096.16667,140.308337 2097.48333,140.666667 2098.75,140.7 L2098.75,129.6 C2097.28333,129.199998 2095.91667,128.741669 2094.65,128.225 C2093.38333,127.708331 2092.275,127.050004 2091.325,126.25 C2090.375,125.449996 2089.63334,124.491672 2089.1,123.375 C2088.56666,122.258328 2088.3,120.900008 2088.3,119.3 C2088.3,117.799993 2088.59166,116.458339 2089.175,115.275 C2089.75834,114.091661 2090.54166,113.083338 2091.525,112.25 C2092.50834,111.416663 2093.62499,110.758336 2094.875,110.275 C2096.12501,109.791664 2097.41666,109.500001 2098.75,109.4 L2098.75,106 L2101.45,106 L2101.45,109.3 Z M2098.75,114.4 C2097.58333,114.533334 2096.55,114.966663 2095.65,115.7 C2094.75,116.433337 2094.3,117.533326 2094.3,119 C2094.3,120.400007 2094.725,121.45833 2095.575,122.175 C2096.425,122.89167 2097.48333,123.433331 2098.75,123.8 L2098.75,114.4 Z M2101.45,140.7 C2102.85001,140.633333 2103.975,140.133338 2104.825,139.2 C2105.675,138.266662 2106.1,137.050007 2106.1,135.55 C2106.1,134.083326 2105.65834,132.975004 2104.775,132.225 C2103.89166,131.474996 2102.78334,130.866669 2101.45,130.4 L2101.45,140.7 Z" id="$-copy-6" fill="#FFFFFF" opacity="0.404092817"></path>
            <path d="M1016,127.6 C1016,130.466681 1015.725,133.049989 1015.175,135.35 C1014.625,137.650012 1013.82501,139.599992 1012.775,141.2 C1011.72499,142.800008 1010.42501,144.033329 1008.875,144.9 C1007.32499,145.766671 1005.55001,146.2 1003.55,146.2 C1001.54999,146.2 999.766675,145.766671 998.2,144.9 C996.633325,144.033329 995.316672,142.800008 994.25,141.2 C993.183328,139.599992 992.375003,137.650012 991.825,135.35 C991.274997,133.049989 991,130.466681 991,127.6 C991,124.733319 991.274997,122.150012 991.825,119.85 C992.375003,117.549989 993.183328,115.600008 994.25,114 C995.316672,112.399992 996.633325,111.166671 998.2,110.3 C999.766675,109.433329 1001.54999,109 1003.55,109 C1005.55001,109 1007.32499,109.433329 1008.875,110.3 C1010.42501,111.166671 1011.72499,112.399992 1012.775,114 C1013.82501,115.600008 1014.625,117.549989 1015.175,119.85 C1015.725,122.150012 1016,124.733319 1016,127.6 L1016,127.6 L1016,127.6 Z M1009.85,127.6 C1009.85,126.366661 1009.775,124.966674 1009.625,123.4 C1009.475,121.833325 1009.175,120.350007 1008.725,118.95 C1008.275,117.549993 1007.63334,116.375005 1006.8,115.425 C1005.96666,114.474995 1004.88334,114 1003.55,114 C1002.18333,114 1001.08334,114.474995 1000.25,115.425 C999.416663,116.375005 998.775002,117.549993 998.325,118.95 C997.874998,120.350007 997.566668,121.833325 997.4,123.4 C997.233333,124.966674 997.15,126.366661 997.15,127.6 C997.15,128.83334 997.233333,130.233325 997.4,131.8 C997.566668,133.366674 997.874998,134.833326 998.325,136.2 C998.775002,137.566673 999.416663,138.724995 1000.25,139.675 C1001.08334,140.625005 1002.18333,141.1 1003.55,141.1 C1004.88334,141.1 1005.96666,140.625005 1006.8,139.675 C1007.63334,138.724995 1008.275,137.566673 1008.725,136.2 C1009.175,134.833326 1009.475,133.366674 1009.625,131.8 C1009.775,130.233325 1009.85,128.83334 1009.85,127.6 L1009.85,127.6 L1009.85,127.6 Z M1043.16667,127.6 C1043.16667,130.466681 1042.89167,133.049989 1042.34167,135.35 C1041.79166,137.650012 1040.99167,139.599992 1039.94167,141.2 C1038.89166,142.800008 1037.59167,144.033329 1036.04167,144.9 C1034.49166,145.766671 1032.71668,146.2 1030.71667,146.2 C1028.71666,146.2 1026.93334,145.766671 1025.36667,144.9 C1023.79999,144.033329 1022.48334,142.800008 1021.41667,141.2 C1020.34999,139.599992 1019.54167,137.650012 1018.99167,135.35 C1018.44166,133.049989 1018.16667,130.466681 1018.16667,127.6 C1018.16667,124.733319 1018.44166,122.150012 1018.99167,119.85 C1019.54167,117.549989 1020.34999,115.600008 1021.41667,114 C1022.48334,112.399992 1023.79999,111.166671 1025.36667,110.3 C1026.93334,109.433329 1028.71666,109 1030.71667,109 C1032.71668,109 1034.49166,109.433329 1036.04167,110.3 C1037.59167,111.166671 1038.89166,112.399992 1039.94167,114 C1040.99167,115.600008 1041.79166,117.549989 1042.34167,119.85 C1042.89167,122.150012 1043.16667,124.733319 1043.16667,127.6 L1043.16667,127.6 L1043.16667,127.6 Z M1037.01667,127.6 C1037.01667,126.366661 1036.94167,124.966674 1036.79167,123.4 C1036.64167,121.833325 1036.34167,120.350007 1035.89167,118.95 C1035.44166,117.549993 1034.8,116.375005 1033.96667,115.425 C1033.13333,114.474995 1032.05001,114 1030.71667,114 C1029.34999,114 1028.25,114.474995 1027.41667,115.425 C1026.58333,116.375005 1025.94167,117.549993 1025.49167,118.95 C1025.04166,120.350007 1024.73333,121.833325 1024.56667,123.4 C1024.4,124.966674 1024.31667,126.366661 1024.31667,127.6 C1024.31667,128.83334 1024.4,130.233325 1024.56667,131.8 C1024.73333,133.366674 1025.04166,134.833326 1025.49167,136.2 C1025.94167,137.566673 1026.58333,138.724995 1027.41667,139.675 C1028.25,140.625005 1029.34999,141.1 1030.71667,141.1 C1032.05001,141.1 1033.13333,140.625005 1033.96667,139.675 C1034.8,138.724995 1035.44166,137.566673 1035.89167,136.2 C1036.34167,134.833326 1036.64167,133.366674 1036.79167,131.8 C1036.94167,130.233325 1037.01667,128.83334 1037.01667,127.6 L1037.01667,127.6 L1037.01667,127.6 Z" id="00" fill="#FFFFFF" opacity="0.4"></path>
            <path d="M1438.5,127.6 C1438.5,130.466681 1438.225,133.049989 1437.675,135.35 C1437.125,137.650012 1436.32501,139.599992 1435.275,141.2 C1434.22499,142.800008 1432.92501,144.033329 1431.375,144.9 C1429.82499,145.766671 1428.05001,146.2 1426.05,146.2 C1424.04999,146.2 1422.26667,145.766671 1420.7,144.9 C1419.13333,144.033329 1417.81667,142.800008 1416.75,141.2 C1415.68333,139.599992 1414.875,137.650012 1414.325,135.35 C1413.775,133.049989 1413.5,130.466681 1413.5,127.6 C1413.5,124.733319 1413.775,122.150012 1414.325,119.85 C1414.875,117.549989 1415.68333,115.600008 1416.75,114 C1417.81667,112.399992 1419.13333,111.166671 1420.7,110.3 C1422.26667,109.433329 1424.04999,109 1426.05,109 C1428.05001,109 1429.82499,109.433329 1431.375,110.3 C1432.92501,111.166671 1434.22499,112.399992 1435.275,114 C1436.32501,115.600008 1437.125,117.549989 1437.675,119.85 C1438.225,122.150012 1438.5,124.733319 1438.5,127.6 L1438.5,127.6 L1438.5,127.6 Z M1432.35,127.6 C1432.35,126.366661 1432.275,124.966674 1432.125,123.4 C1431.975,121.833325 1431.675,120.350007 1431.225,118.95 C1430.775,117.549993 1430.13334,116.375005 1429.3,115.425 C1428.46666,114.474995 1427.38334,114 1426.05,114 C1424.68333,114 1423.58334,114.474995 1422.75,115.425 C1421.91666,116.375005 1421.275,117.549993 1420.825,118.95 C1420.375,120.350007 1420.06667,121.833325 1419.9,123.4 C1419.73333,124.966674 1419.65,126.366661 1419.65,127.6 C1419.65,128.83334 1419.73333,130.233325 1419.9,131.8 C1420.06667,133.366674 1420.375,134.833326 1420.825,136.2 C1421.275,137.566673 1421.91666,138.724995 1422.75,139.675 C1423.58334,140.625005 1424.68333,141.1 1426.05,141.1 C1427.38334,141.1 1428.46666,140.625005 1429.3,139.675 C1430.13334,138.724995 1430.775,137.566673 1431.225,136.2 C1431.675,134.833326 1431.975,133.366674 1432.125,131.8 C1432.275,130.233325 1432.35,128.83334 1432.35,127.6 L1432.35,127.6 L1432.35,127.6 Z M1465.66667,127.6 C1465.66667,130.466681 1465.39167,133.049989 1464.84167,135.35 C1464.29166,137.650012 1463.49167,139.599992 1462.44167,141.2 C1461.39166,142.800008 1460.09167,144.033329 1458.54167,144.9 C1456.99166,145.766671 1455.21668,146.2 1453.21667,146.2 C1451.21666,146.2 1449.43334,145.766671 1447.86667,144.9 C1446.29999,144.033329 1444.98334,142.800008 1443.91667,141.2 C1442.84999,139.599992 1442.04167,137.650012 1441.49167,135.35 C1440.94166,133.049989 1440.66667,130.466681 1440.66667,127.6 C1440.66667,124.733319 1440.94166,122.150012 1441.49167,119.85 C1442.04167,117.549989 1442.84999,115.600008 1443.91667,114 C1444.98334,112.399992 1446.29999,111.166671 1447.86667,110.3 C1449.43334,109.433329 1451.21666,109 1453.21667,109 C1455.21668,109 1456.99166,109.433329 1458.54167,110.3 C1460.09167,111.166671 1461.39166,112.399992 1462.44167,114 C1463.49167,115.600008 1464.29166,117.549989 1464.84167,119.85 C1465.39167,122.150012 1465.66667,124.733319 1465.66667,127.6 L1465.66667,127.6 L1465.66667,127.6 Z M1459.51667,127.6 C1459.51667,126.366661 1459.44167,124.966674 1459.29167,123.4 C1459.14167,121.833325 1458.84167,120.350007 1458.39167,118.95 C1457.94166,117.549993 1457.3,116.375005 1456.46667,115.425 C1455.63333,114.474995 1454.55001,114 1453.21667,114 C1451.84999,114 1450.75,114.474995 1449.91667,115.425 C1449.08333,116.375005 1448.44167,117.549993 1447.99167,118.95 C1447.54166,120.350007 1447.23333,121.833325 1447.06667,123.4 C1446.9,124.966674 1446.81667,126.366661 1446.81667,127.6 C1446.81667,128.83334 1446.9,130.233325 1447.06667,131.8 C1447.23333,133.366674 1447.54166,134.833326 1447.99167,136.2 C1448.44167,137.566673 1449.08333,138.724995 1449.91667,139.675 C1450.75,140.625005 1451.84999,141.1 1453.21667,141.1 C1454.55001,141.1 1455.63333,140.625005 1456.46667,139.675 C1457.3,138.724995 1457.94166,137.566673 1458.39167,136.2 C1458.84167,134.833326 1459.14167,133.366674 1459.29167,131.8 C1459.44167,130.233325 1459.51667,128.83334 1459.51667,127.6 L1459.51667,127.6 L1459.51667,127.6 Z" id="00-copy" fill="#FFFFFF" opacity="0.4"></path>
            <path d="M1838,127.6 C1838,130.466681 1837.725,133.049989 1837.175,135.35 C1836.625,137.650012 1835.82501,139.599992 1834.775,141.2 C1833.72499,142.800008 1832.42501,144.033329 1830.875,144.9 C1829.32499,145.766671 1827.55001,146.2 1825.55,146.2 C1823.54999,146.2 1821.76667,145.766671 1820.2,144.9 C1818.63333,144.033329 1817.31667,142.800008 1816.25,141.2 C1815.18333,139.599992 1814.375,137.650012 1813.825,135.35 C1813.275,133.049989 1813,130.466681 1813,127.6 C1813,124.733319 1813.275,122.150012 1813.825,119.85 C1814.375,117.549989 1815.18333,115.600008 1816.25,114 C1817.31667,112.399992 1818.63333,111.166671 1820.2,110.3 C1821.76667,109.433329 1823.54999,109 1825.55,109 C1827.55001,109 1829.32499,109.433329 1830.875,110.3 C1832.42501,111.166671 1833.72499,112.399992 1834.775,114 C1835.82501,115.600008 1836.625,117.549989 1837.175,119.85 C1837.725,122.150012 1838,124.733319 1838,127.6 L1838,127.6 L1838,127.6 Z M1831.85,127.6 C1831.85,126.366661 1831.775,124.966674 1831.625,123.4 C1831.475,121.833325 1831.175,120.350007 1830.725,118.95 C1830.275,117.549993 1829.63334,116.375005 1828.8,115.425 C1827.96666,114.474995 1826.88334,114 1825.55,114 C1824.18333,114 1823.08334,114.474995 1822.25,115.425 C1821.41666,116.375005 1820.775,117.549993 1820.325,118.95 C1819.875,120.350007 1819.56667,121.833325 1819.4,123.4 C1819.23333,124.966674 1819.15,126.366661 1819.15,127.6 C1819.15,128.83334 1819.23333,130.233325 1819.4,131.8 C1819.56667,133.366674 1819.875,134.833326 1820.325,136.2 C1820.775,137.566673 1821.41666,138.724995 1822.25,139.675 C1823.08334,140.625005 1824.18333,141.1 1825.55,141.1 C1826.88334,141.1 1827.96666,140.625005 1828.8,139.675 C1829.63334,138.724995 1830.275,137.566673 1830.725,136.2 C1831.175,134.833326 1831.475,133.366674 1831.625,131.8 C1831.775,130.233325 1831.85,128.83334 1831.85,127.6 L1831.85,127.6 L1831.85,127.6 Z M1865.16667,127.6 C1865.16667,130.466681 1864.89167,133.049989 1864.34167,135.35 C1863.79166,137.650012 1862.99167,139.599992 1861.94167,141.2 C1860.89166,142.800008 1859.59167,144.033329 1858.04167,144.9 C1856.49166,145.766671 1854.71668,146.2 1852.71667,146.2 C1850.71666,146.2 1848.93334,145.766671 1847.36667,144.9 C1845.79999,144.033329 1844.48334,142.800008 1843.41667,141.2 C1842.34999,139.599992 1841.54167,137.650012 1840.99167,135.35 C1840.44166,133.049989 1840.16667,130.466681 1840.16667,127.6 C1840.16667,124.733319 1840.44166,122.150012 1840.99167,119.85 C1841.54167,117.549989 1842.34999,115.600008 1843.41667,114 C1844.48334,112.399992 1845.79999,111.166671 1847.36667,110.3 C1848.93334,109.433329 1850.71666,109 1852.71667,109 C1854.71668,109 1856.49166,109.433329 1858.04167,110.3 C1859.59167,111.166671 1860.89166,112.399992 1861.94167,114 C1862.99167,115.600008 1863.79166,117.549989 1864.34167,119.85 C1864.89167,122.150012 1865.16667,124.733319 1865.16667,127.6 L1865.16667,127.6 L1865.16667,127.6 Z M1859.01667,127.6 C1859.01667,126.366661 1858.94167,124.966674 1858.79167,123.4 C1858.64167,121.833325 1858.34167,120.350007 1857.89167,118.95 C1857.44166,117.549993 1856.8,116.375005 1855.96667,115.425 C1855.13333,114.474995 1854.05001,114 1852.71667,114 C1851.34999,114 1850.25,114.474995 1849.41667,115.425 C1848.58333,116.375005 1847.94167,117.549993 1847.49167,118.95 C1847.04166,120.350007 1846.73333,121.833325 1846.56667,123.4 C1846.4,124.966674 1846.31667,126.366661 1846.31667,127.6 C1846.31667,128.83334 1846.4,130.233325 1846.56667,131.8 C1846.73333,133.366674 1847.04166,134.833326 1847.49167,136.2 C1847.94167,137.566673 1848.58333,138.724995 1849.41667,139.675 C1850.25,140.625005 1851.34999,141.1 1852.71667,141.1 C1854.05001,141.1 1855.13333,140.625005 1855.96667,139.675 C1856.8,138.724995 1857.44166,137.566673 1857.89167,136.2 C1858.34167,134.833326 1858.64167,133.366674 1858.79167,131.8 C1858.94167,130.233325 1859.01667,128.83334 1859.01667,127.6 L1859.01667,127.6 L1859.01667,127.6 Z" id="00-copy-2" fill="#FFFFFF" opacity="0.4"></path>
            <path d="M2198.91667,127.6 C2198.91667,130.466681 2198.64167,133.049989 2198.09167,135.35 C2197.54166,137.650012 2196.74167,139.599992 2195.69167,141.2 C2194.64166,142.800008 2193.34167,144.033329 2191.79167,144.9 C2190.24166,145.766671 2188.46668,146.2 2186.46667,146.2 C2184.46666,146.2 2182.68334,145.766671 2181.11667,144.9 C2179.54999,144.033329 2178.23334,142.800008 2177.16667,141.2 C2176.09999,139.599992 2175.29167,137.650012 2174.74167,135.35 C2174.19166,133.049989 2173.91667,130.466681 2173.91667,127.6 C2173.91667,124.733319 2174.19166,122.150012 2174.74167,119.85 C2175.29167,117.549989 2176.09999,115.600008 2177.16667,114 C2178.23334,112.399992 2179.54999,111.166671 2181.11667,110.3 C2182.68334,109.433329 2184.46666,109 2186.46667,109 C2188.46668,109 2190.24166,109.433329 2191.79167,110.3 C2193.34167,111.166671 2194.64166,112.399992 2195.69167,114 C2196.74167,115.600008 2197.54166,117.549989 2198.09167,119.85 C2198.64167,122.150012 2198.91667,124.733319 2198.91667,127.6 L2198.91667,127.6 L2198.91667,127.6 Z M2192.76667,127.6 C2192.76667,126.366661 2192.69167,124.966675 2192.54167,123.4 C2192.39167,121.833326 2192.09167,120.350007 2191.64167,118.95 C2191.19166,117.549993 2190.55,116.375005 2189.71667,115.425 C2188.88333,114.474995 2187.80001,114 2186.46667,114 C2185.09999,114 2184,114.474995 2183.16667,115.425 C2182.33333,116.375005 2181.69167,117.549993 2181.24167,118.95 C2180.79166,120.350007 2180.48333,121.833326 2180.31667,123.4 C2180.15,124.966675 2180.06667,126.366661 2180.06667,127.6 C2180.06667,128.83334 2180.15,130.233326 2180.31667,131.8 C2180.48333,133.366675 2180.79166,134.833326 2181.24167,136.2 C2181.69167,137.566674 2182.33333,138.724995 2183.16667,139.675 C2184,140.625005 2185.09999,141.1 2186.46667,141.1 C2187.80001,141.1 2188.88333,140.625005 2189.71667,139.675 C2190.55,138.724995 2191.19166,137.566674 2191.64167,136.2 C2192.09167,134.833326 2192.39167,133.366675 2192.54167,131.8 C2192.69167,130.233326 2192.76667,128.83334 2192.76667,127.6 L2192.76667,127.6 L2192.76667,127.6 Z M2226.08333,127.6 C2226.08333,130.466681 2225.80834,133.049989 2225.25833,135.35 C2224.70833,137.650012 2223.90834,139.599992 2222.85833,141.2 C2221.80833,142.800008 2220.50834,144.033329 2218.95833,144.9 C2217.40833,145.766671 2215.63334,146.2 2213.63333,146.2 C2211.63332,146.2 2209.85001,145.766671 2208.28333,144.9 C2206.71666,144.033329 2205.40001,142.800008 2204.33333,141.2 C2203.26666,139.599992 2202.45834,137.650012 2201.90833,135.35 C2201.35833,133.049989 2201.08333,130.466681 2201.08333,127.6 C2201.08333,124.733319 2201.35833,122.150012 2201.90833,119.85 C2202.45834,117.549989 2203.26666,115.600008 2204.33333,114 C2205.40001,112.399992 2206.71666,111.166671 2208.28333,110.3 C2209.85001,109.433329 2211.63332,109 2213.63333,109 C2215.63334,109 2217.40833,109.433329 2218.95833,110.3 C2220.50834,111.166671 2221.80833,112.399992 2222.85833,114 C2223.90834,115.600008 2224.70833,117.549989 2225.25833,119.85 C2225.80834,122.150012 2226.08333,124.733319 2226.08333,127.6 L2226.08333,127.6 L2226.08333,127.6 Z M2219.93333,127.6 C2219.93333,126.366661 2219.85833,124.966675 2219.70833,123.4 C2219.55833,121.833326 2219.25834,120.350007 2218.80833,118.95 C2218.35833,117.549993 2217.71667,116.375005 2216.88333,115.425 C2216.05,114.474995 2214.96667,114 2213.63333,114 C2212.26666,114 2211.16667,114.474995 2210.33333,115.425 C2209.5,116.375005 2208.85834,117.549993 2208.40833,118.95 C2207.95833,120.350007 2207.65,121.833326 2207.48333,123.4 C2207.31667,124.966675 2207.23333,126.366661 2207.23333,127.6 C2207.23333,128.83334 2207.31667,130.233326 2207.48333,131.8 C2207.65,133.366675 2207.95833,134.833326 2208.40833,136.2 C2208.85834,137.566674 2209.5,138.724995 2210.33333,139.675 C2211.16667,140.625005 2212.26666,141.1 2213.63333,141.1 C2214.96667,141.1 2216.05,140.625005 2216.88333,139.675 C2217.71667,138.724995 2218.35833,137.566674 2218.80833,136.2 C2219.25834,134.833326 2219.55833,133.366675 2219.70833,131.8 C2219.85833,130.233326 2219.93333,128.83334 2219.93333,127.6 L2219.93333,127.6 L2219.93333,127.6 Z" id="00-copy-4" fill="#FFFFFF" opacity="0.4"></path>
            <rect id="Rectangle-1" fill="#FFFFFF" opacity="0.4" x="992" y="151" width="50" height="5"></rect>
            <rect id="Rectangle-1-Copy" fill="#FFFFFF" opacity="0.4" x="1414.5" y="151" width="50" height="5"></rect>
            <rect id="Rectangle-1-Copy-2" fill="#FFFFFF" opacity="0.4" x="1814" y="151" width="50" height="5"></rect>
            <rect id="Rectangle-1-Copy-4" fill="#FFFFFF" opacity="0.4" x="2174.91667" y="151" width="50" height="5"></rect>
            <text id="3" opacity="0.92" transform="translate(931.802157, 168.451598) rotate(-6.000000) translate(-931.802157, -168.451598) " font-family="AvenirNext-Bold, Avenir Next" font-size="175" font-weight="bold" letter-spacing="-44.4230347" fill="#FFFFFF">
                <tspan x="897.488674" y="223.951598">3</tspan>
            </text>
            <text id="13" opacity="0.92" transform="translate(1314.113162, 171.057830) rotate(-6.000000) translate(-1314.113162, -171.057830) " font-family="AvenirNext-Bold, Avenir Next" font-size="175" font-weight="bold" letter-spacing="-44.4230347" fill="#FFFFFF">
                <tspan x="1245.4862" y="226.55783">13</tspan>
            </text>
            <text id="11" opacity="0.92" transform="translate(1719.113162, 171.057830) rotate(-6.000000) translate(-1719.113162, -171.057830) " font-family="AvenirNext-Bold, Avenir Next" font-size="175" font-weight="bold" letter-spacing="-44.4230347" fill="#FFFFFF">
                <tspan x="1650.4862" y="226.55783">11</tspan>
            </text>
            <text id="1" opacity="0.92" transform="translate(2126.113162, 171.057830) rotate(-6.000000) translate(-2126.113162, -171.057830) " font-family="AvenirNext-Bold, Avenir Next" font-size="175" font-weight="bold" letter-spacing="-44.4230347" fill="#FFFFFF">
                <tspan x="2091.79968" y="226.55783">1</tspan>
            </text>
        </g>
    </g>
</svg>